<?xml version="1.0" standalone="no"?>
<!DOCTYPE svg PUBLIC "-//W3C//DTD SVG 1.1//EN" "http://www.w3.org/Graphics/SVG/1.1/DTD/svg11.dtd" >
<svg xmlns="http://www.w3.org/2000/svg" xmlns:xlink="http://www.w3.org/1999/xlink" version="1.1">
<metadata>
Created by FontForge 20170731 at Sat Nov 14 02:29:02 2020
 By Aleksey,,,
(c)2015 Now Typeface is a trademark of Alfredo Marco Pradil. All rights reserved.
</metadata>
<defs>
<font id="Now-Regular" horiz-adv-x="0" >
  <font-face 
    font-family="Now"
    font-weight="400"
    font-stretch="normal"
    units-per-em="2048"
    panose-1="0 0 5 0 0 0 0 0 0 0"
    ascent="1638"
    descent="-410"
    x-height="1024"
    cap-height="1536"
    bbox="-1541 -622 2092 2396"
    underline-thickness="128"
    underline-position="-384"
    unicode-range="U+0020-FB02"
  />
<missing-glyph horiz-adv-x="1236" 
d="M202 0v1536h832v-1536h-832zM325 123h586v1290h-586v-1290z" />
    <glyph glyph-name="fi" unicode="fi" horiz-adv-x="1277" 
d="M404 1574v-550h274v-154h-274v-870h-158v870h-172v154h172v571q0 120 87 204.5t207 84.5q85 0 136 -33v-123l-118 3q-64 0 -109 -44t-45 -113zM1103 1324q0 -44 -33 -76t-77 -32q-46 0 -79 32t-33 76q0 47 33 78.5t79 31.5q45 0 77.5 -31.5t32.5 -78.5zM914 0v1024h159
v-1024h-159z" />
    <glyph glyph-name="fl" unicode="fl" horiz-adv-x="1239" 
d="M404 1574v-550h274v-154h-274v-870h-158v870h-172v154h172v571q0 120 87 204.5t207 84.5q85 0 136 -33v-123l-118 3q-64 0 -109 -44t-45 -113zM893 1884h159v-1884h-159v1884z" />
    <glyph glyph-name="f_t.liga" unicode="ft" horiz-adv-x="1346" 
d="M1262 870h-274v-581q0 -69 45 -112.5t109 -43.5h118v-120q-51 -33 -136 -33q-120 0 -207.5 84.5t-87.5 204.5v601h-425v-870h-158v870h-172v154h172v571q0 120 87 204.5t207 84.5q85 0 136 -33v-123l-118 3q-64 0 -109 -44t-45 -113v-550h425v445h159v-445h274v-154z" />
    <glyph glyph-name=".notdef" horiz-adv-x="1236" 
d="M202 0v1536h832v-1536h-832zM325 123h586v1290h-586v-1290z" />
    <glyph glyph-name=".null" 
 />
    <glyph glyph-name="nonmarkingreturn" horiz-adv-x="682" 
 />
    <glyph glyph-name="space" unicode=" " horiz-adv-x="616" 
 />
    <glyph glyph-name="exclam" unicode="!" horiz-adv-x="624" 
d="M248 438l-15 1282h159l-18 -1282h-126zM312 -20q-44 0 -77 33t-33 77q0 45 32.5 77.5t77.5 32.5t77.5 -32.5t32.5 -77.5q0 -44 -33 -77t-77 -33z" />
    <glyph glyph-name="quotedbl" unicode="&#x22;" horiz-adv-x="890" 
d="M218 873l-16 683h151l-18 -683h-117zM556 873l-18 683h153l-18 -683h-117z" />
    <glyph glyph-name="numbersign" unicode="#" horiz-adv-x="1615" 
d="M389 0l51 361h-286l15 120h289l72 484h-292l21 118h284l53 361h116l-49 -361h392l51 361h118l-52 -361h290l-18 -118h-287l-69 -484h287l-16 -120h-286l-57 -361h-115l51 361h-394l-49 -361h-120zM579 481h389l71 484h-394z" />
    <glyph glyph-name="dollar" unicode="$" horiz-adv-x="1121" 
d="M1047 404q0 -173 -108 -284t-279 -135v-29h-156v29q-147 15 -261.5 97t-168.5 210l149 87q35 -92 108 -153t173 -78v16h156v-13q102 20 162.5 84.5t60.5 163.5q0 61 -25.5 109.5t-69 82.5t-99.5 62.5t-118 54t-123.5 52.5t-117.5 62.5t-99.5 79t-69 107.5t-25.5 143
q0 168 104 276t264 126v31h156v-36q97 -19 178 -68t135 -117l-128 -107q-64 94 -185 125v-5h-156v11q-92 -16 -148 -72.5t-56 -150.5q0 -58 25.5 -105t69 -79t99.5 -59.5t118 -53t123.5 -52.5t117.5 -64t99.5 -83t69 -114t25.5 -151z" />
    <glyph glyph-name="percent" unicode="%" horiz-adv-x="1533" 
d="M407 922q-115 0 -195.5 91.5t-80.5 222.5q0 133 80.5 226.5t195.5 93.5q113 0 193.5 -93.5t80.5 -226.5q0 -130 -80.5 -222t-193.5 -92zM156 0l1055 1536h166l-1054 -1536h-167zM407 1044q60 0 105.5 56t45.5 136q0 81 -45.5 139.5t-105.5 58.5q-62 0 -106.5 -58
t-44.5 -140q0 -80 44.5 -136t106.5 -56zM1129 -20q-115 0 -196 93.5t-81 226.5q0 131 81 222.5t196 91.5t194.5 -91.5t79.5 -222.5q0 -133 -79.5 -226.5t-194.5 -93.5zM1129 102q60 0 104 58t44 140q0 80 -44 136t-104 56q-62 0 -106.5 -56t-44.5 -136q0 -82 44.5 -140
t106.5 -58z" />
    <glyph glyph-name="ampersand" unicode="&#x26;" horiz-adv-x="1390" 
d="M1290 855v-156h-143v-264q0 -190 -128.5 -312.5t-332.5 -122.5q-132 0 -241.5 54t-173.5 150.5t-64 215.5q0 111 53.5 207.5t143.5 155.5q-86 63 -135 155.5t-49 200.5q0 172 116 284.5t284 112.5h363v-164h-335q-112 0 -189.5 -64t-77.5 -176q0 -120 85.5 -198.5
t209.5 -78.5h312v259h159v-259h143zM684 141q138 0 221 82.5t83 211.5v264h-345q-120 0 -203.5 -79.5t-83.5 -194.5q0 -124 95.5 -204t232.5 -80z" />
    <glyph glyph-name="quotesingle" unicode="'" horiz-adv-x="552" 
d="M218 955l-16 601h151l-18 -601h-117z" />
    <glyph glyph-name="parenleft" unicode="(" horiz-adv-x="770" 
d="M699 -594q-93 7 -172 53t-147.5 141.5t-116.5 235.5t-75 344.5t-27 459.5q0 256 27 462t75 347t116.5 238t147.5 143.5t172 53.5v-115q-87 -12 -157 -79.5t-125 -198.5t-85 -347t-30 -504q0 -285 30 -499t85 -343.5t125 -197t157 -79.5v-115z" />
    <glyph glyph-name="parenright" unicode=")" horiz-adv-x="770" 
d="M72 -594v115q69 10 127 53t108.5 129.5t85.5 212.5t55 310.5t20 413.5q0 288 -30 504t-85 347t-124.5 198.5t-156.5 79.5v115q93 -7 172 -53.5t147 -143.5t116 -238t75 -347t27 -462q0 -255 -27 -459.5t-75 -344.5t-116 -235.5t-147 -141.5t-172 -53z" />
    <glyph glyph-name="asterisk" unicode="*" horiz-adv-x="721" 
d="M282 1055l-82 48l107 154l-187 -18v95l187 -18l-107 153l82 49l79 -166l79 166l82 -49l-107 -153l187 18v-95l-187 18l107 -154l-82 -48l-79 166z" />
    <glyph glyph-name="plus" unicode="+" horiz-adv-x="1674" 
d="M765 0v561h-563v148h563v561h146v-561h561v-148h-561v-561h-146z" />
    <glyph glyph-name="comma" unicode="," horiz-adv-x="430" 
d="M146 -317h-133l269 576h179z" />
    <glyph glyph-name="hyphen" unicode="-" horiz-adv-x="924" 
d="M102 456v153h717v-153h-717z" />
    <glyph glyph-name="period" unicode="." horiz-adv-x="488" 
d="M243 -20q-56 0 -98.5 41.5t-42.5 98.5t42.5 99t98.5 42q58 0 99.5 -41.5t41.5 -99.5t-41.5 -99t-99.5 -41z" />
    <glyph glyph-name="slash" unicode="/" horiz-adv-x="1392" 
d="M-38 -614l1315 2498h154l-1316 -2498h-153z" />
    <glyph glyph-name="zero" unicode="0" horiz-adv-x="1425" 
d="M712 -20q-174 0 -300 103.5t-188.5 280t-62.5 404.5t62.5 404.5t188.5 280t300 103.5t300.5 -103.5t189.5 -280t63 -404.5t-63 -404.5t-189.5 -280t-300.5 -103.5zM714 143q125 0 213.5 81t131 220t42.5 324t-42.5 324t-131 220t-213.5 81q-126 0 -214.5 -81t-130 -220
t-41.5 -324t41.5 -324t130 -220t214.5 -81z" />
    <glyph glyph-name="one" unicode="1" horiz-adv-x="785" 
d="M356 0v1372h-256v164h420v-1536h-164z" />
    <glyph glyph-name="two" unicode="2" horiz-adv-x="1256" 
d="M407 164h735v-164h-1106l642 704q147 164 192.5 242.5t45.5 161.5q0 136 -80 210.5t-204 76.5q-126 2 -208.5 -78t-80.5 -214h-179q-2 202 135.5 330t340.5 126q191 -2 319 -117t134 -305q4 -89 -23.5 -164.5t-87.5 -156t-186 -220.5z" />
    <glyph glyph-name="three" unicode="3" horiz-adv-x="1256" 
d="M607 906q134 0 245.5 -59t176 -164t64.5 -235q0 -195 -139 -331.5t-340 -136.5q-196 0 -334.5 130.5t-138.5 314.5l171 3q0 -120 89 -203.5t213 -83.5q130 0 221.5 92t91.5 223q0 127 -89 206.5t-221 79.5h-369l489 633h-596v161h916l-491 -630h41z" />
    <glyph glyph-name="four" unicode="4" horiz-adv-x="1272" 
d="M1132 486v-163h-162v-323h-164v323h-742l704 1213h202v-1050h162zM317 486h489v861z" />
    <glyph glyph-name="five" unicode="5" horiz-adv-x="1287" 
d="M653 1016q212 0 351.5 -146.5t139.5 -367.5q0 -228 -149.5 -375t-395.5 -147q-144 0 -278.5 53t-212.5 144l20 194h15q57 -82 137.5 -135t157 -73t156.5 -20q180 0 283 100.5t103 253.5q0 156 -103.5 255.5t-256.5 99.5q-86 0 -162.5 -32t-132.5 -90l-143 84l87 717h786
v-164h-640l-57 -443q123 92 295 92z" />
    <glyph glyph-name="six" unicode="6" horiz-adv-x="1356" 
d="M1216 530q6 -143 -61 -266t-187 -197.5t-264 -81.5q-224 -11 -387.5 134.5t-173.5 361.5q-11 195 131 371l543 684h204l-450 -538q58 23 128 23q88 1 177 -33.5t163 -96.5t123 -157t54 -204zM701 143q163 10 263.5 119t90.5 265q-10 163 -123 264.5t-274 91.5
q-163 -10 -263 -122.5t-90 -276.5q10 -158 121.5 -254.5t274.5 -86.5z" />
    <glyph glyph-name="seven" unicode="7" horiz-adv-x="1192" 
d="M105 1536h1021v-108l-801 -1428h-192l786 1372h-814v164z" />
    <glyph glyph-name="eight" unicode="8" horiz-adv-x="1200" 
d="M822 855q123 -56 196 -166t73 -246q0 -195 -141.5 -329t-350.5 -134q-205 0 -345.5 134t-140.5 329q0 136 72.5 246t195.5 166q-84 51 -132.5 134.5t-48.5 185.5q0 161 115.5 271t286.5 110t285 -109.5t114 -271.5q0 -103 -48 -187.5t-131 -132.5zM602 1400
q-106 0 -178.5 -72.5t-72.5 -178.5q0 -103 72.5 -174t178.5 -71q104 0 176 71t72 174q0 106 -72 178.5t-176 72.5zM599 125q136 0 230.5 96.5t94.5 231.5q0 137 -94 231t-231 94q-135 0 -229 -94.5t-94 -230.5q0 -135 94.5 -231.5t228.5 -96.5z" />
    <glyph glyph-name="nine" unicode="9" horiz-adv-x="1356" 
d="M1216 1055q7 -201 -133 -371l-540 -684h-208l451 535q-66 -20 -126 -20q-71 -1 -143 20.5t-137.5 64.5t-117 101.5t-83.5 137.5t-36 167q-6 143 61 266t187 197.5t264 81.5q146 7 272.5 -57t204 -181t84.5 -258zM701 653q161 10 261 123t90 276q-10 158 -121.5 254.5
t-272.5 86.5q-164 -10 -265 -119t-91 -265q10 -164 123 -265t276 -91z" />
    <glyph glyph-name="colon" unicode=":" horiz-adv-x="637" 
d="M317 824q-45 0 -77.5 32.5t-32.5 77.5q0 44 33 77t77 33q46 0 79.5 -33t33.5 -77q0 -45 -33.5 -77.5t-79.5 -32.5zM317 -20q-45 0 -77.5 32.5t-32.5 77.5q0 44 33 77t77 33q46 0 79.5 -33t33.5 -77q0 -45 -33.5 -77.5t-79.5 -32.5z" />
    <glyph glyph-name="semicolon" unicode=";" horiz-adv-x="688" 
d="M353 824q-46 0 -78 32t-32 78q0 45 32.5 77.5t77.5 32.5q44 0 77 -33t33 -77q0 -45 -32.5 -77.5t-77.5 -32.5zM192 -317h-133l269 576h179z" />
    <glyph glyph-name="less" unicode="&#x3c;" horiz-adv-x="1533" 
d="M1331 1336v-135l-998 -505l998 -504v-138l-1129 571v146z" />
    <glyph glyph-name="equal" unicode="=" horiz-adv-x="1510" 
d="M141 681v110h1229v-110h-1229zM141 294v110h1229v-110h-1229z" />
    <glyph glyph-name="greater" unicode="&#x3e;" horiz-adv-x="1533" 
d="M202 1336l1129 -565v-146l-1129 -571v138l999 504l-999 505v135z" />
    <glyph glyph-name="question" unicode="?" horiz-adv-x="1228" 
d="M573 428v337q0 76 20.5 131.5t53.5 87t72.5 55.5t79 46.5t72.5 50.5t53.5 77.5t20.5 117.5q0 121 -84 200t-216 79q-123 0 -205.5 -78t-88.5 -198h-144q4 179 128 296.5t310 117.5q192 0 316 -118t124 -299q0 -81 -20 -142.5t-52.5 -98.5t-71.5 -66t-78 -51t-71.5 -46
t-52.5 -60t-20 -84v-355h-146zM655 -20q-46 0 -79 32t-33 78q0 44 33 77t79 33q44 0 77 -33t33 -77q0 -45 -32.5 -77.5t-77.5 -32.5z" />
    <glyph glyph-name="at" unicode="@" horiz-adv-x="1267" 
d="M1068 305h-105v76q-34 -43 -92 -71t-111 -28q-110 0 -185.5 74.5t-75.5 183.5q0 107 75.5 181.5t183.5 74.5q58 0 115 -28t90 -74v56q0 113 -86 192t-209 79q-177 0 -301 -132.5t-124 -322.5q0 -195 140.5 -329.5t340.5 -134.5h344v-102h-344q-161 0 -295 75t-211 205
t-77 286q0 153 70 281t191 202.5t266 74.5q168 0 284 -108.5t116 -265.5v-445zM794 374q60 0 105.5 32t63.5 83v102q-18 51 -63.5 83.5t-105.5 32.5q-75 0 -126 -48t-51 -119t51 -118.5t126 -47.5z" />
    <glyph glyph-name="A" unicode="A" horiz-adv-x="1292" 
d="M1114 0l-126 358h-683l-126 -358h-179l556 1536h181l556 -1536h-179zM358 515h576l-286 826z" />
    <glyph glyph-name="B" unicode="B" horiz-adv-x="1338" 
d="M945 778q125 -42 199.5 -140t74.5 -234q0 -176 -121.5 -290t-298.5 -114h-612v1536h558q179 0 302 -116t123 -294q0 -120 -60.5 -210.5t-164.5 -137.5zM1006 1114q0 112 -81 185t-198 73h-379v-525h379q116 0 197.5 77t81.5 190zM778 164q115 0 196 73.5t81 184.5
q0 112 -81.5 189.5t-195.5 77.5h-430v-525h430z" />
    <glyph glyph-name="C" unicode="C" horiz-adv-x="1684" 
d="M914 -20q-160 0 -306 62.5t-252 168t-168.5 251.5t-62.5 306t62.5 306t168.5 251.5t252 168t306 62.5q217 0 399.5 -108.5t286.5 -290.5l-141 -79q-80 144 -225.5 229.5t-319.5 85.5q-170 0 -314 -83t-227.5 -227t-83.5 -315t83.5 -315t227.5 -227t314 -83
q174 0 319.5 85.5t225.5 229.5l141 -79q-104 -182 -286.5 -290.5t-399.5 -108.5z" />
    <glyph glyph-name="D" unicode="D" horiz-adv-x="1500" 
d="M187 0v1536h420q156 0 298 -60.5t245 -163.5t164 -245.5t61 -298.5t-61 -298.5t-164 -245.5t-245 -163.5t-298 -60.5h-420zM348 164h256q168 0 307 78t219.5 217t80.5 309t-80.5 309t-219.5 217t-307 78h-256v-1208z" />
    <glyph glyph-name="E" unicode="E" horiz-adv-x="1192" 
d="M1039 1377h-675v-530h588v-158h-588v-530h675v-159h-839v1536h839v-159z" />
    <glyph glyph-name="F" unicode="F" horiz-adv-x="1085" 
d="M1039 1377h-675v-530h588v-158h-588v-689h-164v1536h839v-159z" />
    <glyph glyph-name="G" unicode="G" horiz-adv-x="1840" 
d="M919 814h791v-46q0 -160 -62.5 -306t-168 -251.5t-251.5 -168t-306 -62.5q-161 0 -307.5 62.5t-252 168t-167.5 251.5t-62 306t62 306t167.5 251.5t252 168t307.5 62.5q217 0 399.5 -108.5t283.5 -290.5l-141 -79q-80 144 -225 229.5t-317 85.5q-170 0 -314 -83
t-227.5 -227t-83.5 -315t83.5 -315t227.5 -227t314 -83q231 0 404 146.5t210 370.5h-617v154z" />
    <glyph glyph-name="H" unicode="H" horiz-adv-x="1548" 
d="M1198 1536h164v-1536h-164v686h-847v-686h-164v1536h164v-686h847v686z" />
    <glyph glyph-name="I" unicode="I" horiz-adv-x="560" 
d="M200 0v1536h164v-1536h-164z" />
    <glyph glyph-name="J" unicode="J" horiz-adv-x="1013" 
d="M860 1536v-1165q0 -180 -106.5 -285.5t-282.5 -105.5q-162 0 -266 90t-121 247l167 36q10 -95 70.5 -152.5t149.5 -57.5q100 0 162.5 67t62.5 179v983h-540v164h704z" />
    <glyph glyph-name="K" unicode="K" horiz-adv-x="1313" 
d="M1103 0l-642 753h-110v-753h-164v1536h164v-630h107l617 630h228l-701 -709l729 -827h-228z" />
    <glyph glyph-name="L" unicode="L" horiz-adv-x="944" 
d="M351 164h571v-164h-735v1536h164v-1372z" />
    <glyph glyph-name="M" unicode="M" horiz-adv-x="1899" 
d="M1541 1536h172v-1536h-162v1208l-535 -1208h-135l-530 1213v-1213h-164v1536h174l589 -1339z" />
    <glyph glyph-name="N" unicode="N" horiz-adv-x="1638" 
d="M1290 1536h162v-1536h-154l-947 1262v-1262h-164v1536h153l950 -1262v1262z" />
    <glyph glyph-name="O" unicode="O" horiz-adv-x="1830" 
d="M914 -20q-160 0 -306 62.5t-252 168t-168.5 251.5t-62.5 306t62.5 306t168.5 251.5t252 168t306 62.5q161 0 307.5 -62.5t251.5 -168t167 -251.5t62 -306t-62 -306t-167 -251.5t-251.5 -168t-307.5 -62.5zM914 143q128 0 244 49t199.5 132.5t132.5 199.5t49 244t-49 244
t-132.5 199.5t-199.5 132.5t-244 49q-170 0 -314 -83t-227.5 -227t-83.5 -315t83.5 -315t227.5 -227t314 -83z" />
    <glyph glyph-name="P" unicode="P" horiz-adv-x="1208" 
d="M737 1536q178 0 303 -125.5t125 -302.5q0 -178 -124.5 -301t-303.5 -123h-386v-684h-164v1536h550zM722 840q120 0 199.5 71.5t79.5 194.5q0 121 -80.5 196t-198.5 75h-371v-537h371z" />
    <glyph glyph-name="Q" unicode="Q" horiz-adv-x="1840" 
d="M1761 154v-154h-668q-86 -20 -179 -20q-160 0 -306 62.5t-252 168t-168.5 251.5t-62.5 306t62.5 306t168.5 251.5t252 168t306 62.5q161 0 307.5 -62.5t251.5 -168t167 -251.5t62 -306q0 -217 -107.5 -399.5t-288.5 -286.5l225 72h230zM289 768q0 -171 83.5 -315
t227.5 -227t314 -83q128 0 244 49t199.5 132.5t132.5 199.5t49 244t-49 244t-132.5 199.5t-199.5 132.5t-244 49q-170 0 -314 -83t-227.5 -227t-83.5 -315z" />
    <glyph glyph-name="R" unicode="R" horiz-adv-x="1285" 
d="M809 701l453 -701h-187l-435 694h-289v-694h-164v1536h550q178 0 303 -125t125 -305q0 -154 -102 -269t-254 -136zM351 850h376q118 0 196 72.5t78 188.5q0 114 -78.5 187.5t-195.5 73.5h-376v-522z" />
    <glyph glyph-name="S" unicode="S" horiz-adv-x="1121" 
d="M573 -20q-170 0 -304.5 85t-194.5 227l149 87q42 -109 134 -172.5t219 -63.5q134 0 220.5 68.5t86.5 187.5q0 61 -25.5 109.5t-69 82.5t-99.5 62.5t-118 54t-123.5 52.5t-117.5 62.5t-99.5 79t-69 107.5t-25.5 143q0 183 122.5 293.5t304.5 110.5q127 0 235.5 -53.5
t174.5 -138.5l-128 -107q-46 65 -117.5 100.5t-159.5 35.5q-114 0 -191 -59t-77 -169q0 -58 25.5 -105t69 -79t99.5 -59.5t118 -53t123.5 -52.5t117.5 -64t99.5 -83t69 -114t25.5 -151q0 -131 -64.5 -228.5t-171 -146.5t-238.5 -49z" />
    <glyph glyph-name="T" unicode="T" horiz-adv-x="1059" 
d="M1037 1536v-164h-425v-1372h-164v1372h-425v164h1014z" />
    <glyph glyph-name="U" unicode="U" horiz-adv-x="1512" 
d="M755 -20q-164 0 -296 67.5t-206 187.5t-74 269v1032h164v-1006q0 -167 117 -277t295 -110q179 0 297 110t118 277v1006h164v-1032q0 -149 -74.5 -269t-207 -187.5t-297.5 -67.5z" />
    <glyph glyph-name="V" unicode="V" horiz-adv-x="1292" 
d="M1114 1536h179l-556 -1536h-181l-556 1536h182l466 -1326z" />
    <glyph glyph-name="W" unicode="W" horiz-adv-x="2071" 
d="M1917 1536h169l-478 -1536h-172l-402 1362l-394 -1362h-174l-481 1536h174l391 -1260l369 1260h166h64l374 -1262z" />
    <glyph glyph-name="X" unicode="X" horiz-adv-x="1231" 
d="M1229 0h-200l-415 643l-412 -643h-199l522 778l-510 758h197l402 -622l405 622h197l-512 -758z" />
    <glyph glyph-name="Y" unicode="Y" horiz-adv-x="1241" 
d="M1239 1536l-535 -806v-730h-164v727l-537 809h204l415 -637l415 637h202z" />
    <glyph glyph-name="Z" unicode="Z" horiz-adv-x="1351" 
d="M387 164h870v-164h-1162l842 1372h-781v164h1070z" />
    <glyph glyph-name="bracketleft" unicode="[" horiz-adv-x="665" 
d="M187 -512v2396h404v-123h-263v-2150h263v-123h-404z" />
    <glyph glyph-name="backslash" unicode="\" horiz-adv-x="1392" 
d="M1277 -614l-1315 2498h153l1316 -2498h-154z" />
    <glyph glyph-name="bracketright" unicode="]" horiz-adv-x="665" 
d="M74 -512v123h264v2150h-264v123h402v-2396h-402z" />
    <glyph glyph-name="asciicircum" unicode="^" horiz-adv-x="1443" 
d="M1362 404h-136l-504 1001l-504 -1001h-139l569 1132h146z" />
    <glyph glyph-name="underscore" unicode="_" horiz-adv-x="1428" 
d="M100 -154v154h1229v-154h-1229z" />
    <glyph glyph-name="grave" unicode="`" horiz-adv-x="130" 
d="M471 1157h-107l-303 379h185z" />
    <glyph glyph-name="a" unicode="a" horiz-adv-x="1379" 
d="M1285 133h64v-133q-31 -20 -77 -20q-88 0 -149 47.5t-86 128.5q-75 -82 -176 -129t-213 -47q-145 0 -267.5 71t-194 193.5t-71.5 267.5t71.5 267.5t194 193.5t267.5 71q108 0 204.5 -40.5t168.5 -112.5v133h159v-758q0 -67 29.5 -100t75.5 -33zM648 138
q154 0 263.5 109.5t109.5 264.5t-109.5 264.5t-263.5 109.5q-155 0 -264.5 -109.5t-109.5 -264.5t109.5 -264.5t264.5 -109.5z" />
    <glyph glyph-name="b" unicode="b" horiz-adv-x="1367" 
d="M719 1044q145 0 267.5 -71t194 -193.5t71.5 -267.5t-71.5 -267.5t-194 -193.5t-267.5 -71q-217 0 -373 153v-133h-159v1884h159v-993q156 153 373 153zM719 138q155 0 264.5 109.5t109.5 264.5t-109.5 264.5t-264.5 109.5t-264 -109.5t-109 -264.5t109 -264.5t264 -109.5
z" />
    <glyph glyph-name="c" unicode="c" horiz-adv-x="1221" 
d="M648 -20q-145 0 -267.5 71t-194 193.5t-71.5 267.5t71.5 267.5t194 193.5t267.5 71q177 0 316 -102.5t191 -265.5h-169q-46 95 -137 152.5t-201 57.5q-156 0 -265 -108.5t-109 -265.5t109 -265.5t265 -108.5q110 0 201 57.5t137 152.5h169q-52 -163 -191 -265.5
t-316 -102.5z" />
    <glyph glyph-name="d" unicode="d" horiz-adv-x="1367" 
d="M1021 1884h159v-1884h-159v133q-156 -153 -373 -153q-145 0 -267.5 71t-194 193.5t-71.5 267.5t71.5 267.5t194 193.5t267.5 71q217 0 373 -153v993zM648 138q154 0 263.5 109.5t109.5 264.5t-109.5 264.5t-263.5 109.5q-155 0 -264.5 -109.5t-109.5 -264.5t109.5 -264.5
t264.5 -109.5z" />
    <glyph glyph-name="e" unicode="e" horiz-adv-x="1285" 
d="M1180 522l-2 -33h-904q8 -148 115.5 -249.5t258.5 -101.5q115 0 208 61t135 162h169q-51 -167 -191.5 -274t-320.5 -107q-145 0 -267.5 71t-194 193.5t-71.5 267.5t71.5 267.5t194 193.5t267.5 71q144 0 264.5 -68.5t192 -188.5t75.5 -265zM648 886q-121 0 -218 -70.5
t-136 -183.5h704q-37 113 -133 183.5t-217 70.5z" />
    <glyph glyph-name="f" unicode="f" horiz-adv-x="706" 
d="M678 1024v-154h-274v-870h-158v870h-172v154h172v571q0 120 87 204.5t207 84.5q85 0 136 -33v-123l-118 3q-64 0 -109 -44t-45 -113v-550h274z" />
    <glyph glyph-name="g" unicode="g" horiz-adv-x="1367" 
d="M1019 1024h161v-1114q0 -220 -156 -376t-376 -156q-171 0 -308.5 98t-193.5 255l146 64q37 -113 135 -185.5t221 -72.5q154 0 263.5 109.5t109.5 263.5v223q-156 -153 -373 -153q-145 0 -267.5 71t-194 193.5t-71.5 267.5q0 146 71.5 268.5t194 193t267.5 70.5
q106 0 202.5 -39t168.5 -109v128zM648 138q154 0 263.5 110t109.5 264q0 155 -109.5 264.5t-263.5 109.5q-155 0 -264.5 -109.5t-109.5 -264.5q0 -154 109.5 -264t264.5 -110z" />
    <glyph glyph-name="h" unicode="h" horiz-adv-x="1134" 
d="M573 1044q162 0 274.5 -113t112.5 -276v-655h-156v655q0 97 -68 164t-163 67q-94 0 -160.5 -66.5t-66.5 -164.5v-655h-159v1884h159v-914q103 74 227 74z" />
    <glyph glyph-name="i" unicode="i" horiz-adv-x="570" 
d="M287 1216q-46 0 -79.5 32t-33.5 76q0 47 33 78.5t80 31.5q45 0 77.5 -31.5t32.5 -78.5q0 -44 -33 -76t-77 -32zM207 0v1024h159v-1024h-159z" />
    <glyph glyph-name="j" unicode="j" horiz-adv-x="573" 
d="M287 1216q-44 0 -77 32t-33 76q0 47 32.5 78.5t77.5 31.5t77.5 -31.5t32.5 -78.5q0 -44 -33 -76t-77 -32zM74 -614q-87 0 -135 33v123l115 -3q64 0 108.5 43.5t44.5 112.5v1329h159v-1349q0 -120 -86 -204.5t-206 -84.5z" />
    <glyph glyph-name="k" unicode="k" horiz-adv-x="1057" 
d="M1083 0h-218l-504 571v-571h-159v1884h159v-1308l466 448h212l-476 -456z" />
    <glyph glyph-name="l" unicode="l" horiz-adv-x="532" 
d="M187 0v1884h159v-1884h-159z" />
    <glyph glyph-name="m" unicode="m" horiz-adv-x="1720" 
d="M1167 1044q159 0 270.5 -114t111.5 -275v-655h-159v655q0 96 -65.5 163.5t-157.5 67.5q-90 0 -155 -67.5t-65 -163.5v-655h-159v655q0 96 -65 163.5t-155 67.5q-93 0 -157.5 -67.5t-64.5 -163.5v-655h-159v1024h159v-95q102 115 238 115q81 0 156.5 -41t127.5 -112
q52 72 130 112.5t169 40.5z" />
    <glyph glyph-name="n" unicode="n" horiz-adv-x="1146" 
d="M594 1044q150 0 264.5 -115t114.5 -276v-653h-159v653q0 98 -67.5 165.5t-165.5 67.5t-166.5 -67.5t-68.5 -165.5v-653h-159v1024h159v-82q107 102 248 102z" />
    <glyph glyph-name="o" unicode="o" horiz-adv-x="1295" 
d="M648 -20q-145 0 -267.5 71t-194 193.5t-71.5 267.5t71.5 267.5t194 193.5t267.5 71q220 0 376 -156t156 -376t-156 -376t-376 -156zM648 138q154 0 263.5 109.5t109.5 264.5t-109.5 264.5t-263.5 109.5q-155 0 -264.5 -109.5t-109.5 -264.5t109.5 -264.5t264.5 -109.5z
" />
    <glyph glyph-name="p" unicode="p" horiz-adv-x="1367" 
d="M719 1044q145 0 267.5 -71t194 -193.5t71.5 -267.5t-71.5 -267.5t-194 -193.5t-267.5 -71q-217 0 -373 153v-747h-159v1638h159v-133q156 153 373 153zM719 138q155 0 264.5 109.5t109.5 264.5t-109.5 264.5t-264.5 109.5t-264 -109.5t-109 -264.5t109 -264.5t264 -109.5
z" />
    <glyph glyph-name="q" unicode="q" horiz-adv-x="1367" 
d="M1334 -461h94v-133q-48 -20 -112 -20q-120 0 -207.5 84.5t-87.5 204.5v458q-156 -153 -373 -153q-145 0 -267.5 71t-194 193.5t-71.5 267.5t71.5 267.5t194 193.5t267.5 71q217 0 373 -153v133h159v-1329q0 -69 45 -112.5t109 -43.5zM648 138q154 0 263.5 109.5
t109.5 264.5t-109.5 264.5t-263.5 109.5q-155 0 -264.5 -109.5t-109.5 -264.5t109.5 -264.5t264.5 -109.5z" />
    <glyph glyph-name="r" unicode="r" horiz-adv-x="778" 
d="M686 1044q47 0 79 -7v-161q-29 10 -79 10q-141 0 -240.5 -95.5t-99.5 -234.5v-556h-159v1024h159v-146q59 79 146 122.5t194 43.5z" />
    <glyph glyph-name="s" unicode="s" horiz-adv-x="847" 
d="M440 -20q-122 0 -224.5 64.5t-131.5 157.5l154 62q11 -55 70.5 -91.5t131.5 -36.5t120.5 37.5t48.5 102.5q0 57 -42.5 89.5t-146.5 74.5q-146 55 -217.5 126.5t-71.5 186.5q0 90 43.5 157.5t110 100.5t143.5 33q97 0 183.5 -49t115.5 -119l-138 -72q-21 40 -62 61t-92 21
q-65 0 -104 -32.5t-39 -95.5q0 -27 9 -48t20.5 -35.5t40 -31t50.5 -27t69 -30.5q49 -20 82 -35.5t75.5 -43.5t68 -58t43.5 -75t18 -98q0 -130 -95.5 -213t-232.5 -83z" />
    <glyph glyph-name="t" unicode="t" horiz-adv-x="742" 
d="M658 870h-274v-581q0 -69 45 -112.5t109 -43.5h117v-120q-51 -33 -135 -33q-120 0 -207.5 84.5t-87.5 204.5v601h-171v154h171v445h159v-445h274v-154z" />
    <glyph glyph-name="u" unicode="u" horiz-adv-x="1072" 
d="M538 -20q-173 0 -278.5 105.5t-105.5 283.5v655h156v-637q0 -114 64 -181.5t164 -67.5q101 0 164 67.5t63 181.5v637h157v-655q0 -177 -106 -283t-278 -106z" />
    <glyph glyph-name="v" unicode="v" horiz-adv-x="1021" 
d="M827 1024h171l-412 -1024h-153l-410 1024h172l317 -840z" />
    <glyph glyph-name="w" unicode="w" horiz-adv-x="1643" 
d="M1449 1024h171l-350 -1024h-174l-272 804l-274 -804h-174l-353 1024h179l266 -835l280 835h151l279 -840z" />
    <glyph glyph-name="x" unicode="x" horiz-adv-x="1090" 
d="M1068 1024l-425 -512l425 -512h-190l-330 397l-330 -397h-195l428 512l-428 512h192l330 -397l333 397h190z" />
    <glyph glyph-name="y" unicode="y" horiz-adv-x="1047" 
d="M845 1024h179l-440 -1101l-218 -537h-169l246 606l-420 1032h177l327 -840z" />
    <glyph glyph-name="z" unicode="z" horiz-adv-x="1054" 
d="M970 1024l-589 -865h589v-159h-886l589 865h-548v159h845z" />
    <glyph glyph-name="braceleft" unicode="{" horiz-adv-x="637" 
d="M476 -515q-86 0 -144 77t-58 192v535q0 152 -28.5 222.5t-125.5 118.5v110q98 51 126 122.5t28 220.5v530q0 116 58 193.5t144 77.5h92v-120q-97 0 -133 -36.5t-36 -135.5v-540q0 -131 -28.5 -217.5t-114.5 -148.5q86 -63 114.5 -150t28.5 -216v-550q0 -88 37 -126
t132 -38v-121h-92z" />
    <glyph glyph-name="bar" unicode="|" horiz-adv-x="611" 
d="M251 -307v1843h107v-1843h-107z" />
    <glyph glyph-name="braceright" unicode="}" horiz-adv-x="637" 
d="M69 -515v121q95 0 131 38t36 126v550q0 129 28.5 216t114.5 150q-86 62 -114.5 148.5t-28.5 217.5v540q0 99 -36 135.5t-131 36.5v120h90q88 0 146.5 -77.5t58.5 -193.5v-530q0 -76 4.5 -121.5t20 -90t46.5 -74.5t82 -57v-110q-97 -48 -125 -118.5t-28 -222.5v-535
q0 -116 -58.5 -192.5t-146.5 -76.5h-90z" />
    <glyph glyph-name="asciitilde" unicode="~" horiz-adv-x="1205" 
d="M822 358q-48 0 -89.5 13.5t-77 41.5t-54 46t-48.5 53q-42 51 -77 74t-82 23q-80 0 -128 -65t-46 -163h-115q-7 151 74.5 247t214.5 96q78 0 136.5 -38t117.5 -113q30 -35 49 -53t50 -33.5t65 -15.5q78 0 127.5 62.5t43.5 162.5h115q10 -144 -69.5 -241t-206.5 -97z" />
    <glyph glyph-name="exclamdown" unicode="&#xa1;" horiz-adv-x="624" 
d="M312 804q-45 0 -77.5 32.5t-32.5 77.5q0 44 33 77t77 33t77 -33t33 -77q0 -45 -32.5 -77.5t-77.5 -32.5zM233 -614l15 1200h126l18 -1200h-159z" />
    <glyph glyph-name="cent" unicode="&#xa2;" horiz-adv-x="1118" 
d="M676 1108q-164 0 -278 -114t-114 -277t114 -277.5t278 -114.5q170 0 281 103v-162q-113 -75 -258 -82v-187h-105v192q-200 29 -334.5 179t-134.5 349t134.5 348.5t334.5 178.5v192h105v-187q141 -7 258 -82v-161q-113 102 -281 102z" />
    <glyph glyph-name="sterling" unicode="&#xa3;" horiz-adv-x="1264" 
d="M379 118h778v-118h-901v699h-164v110h164v284q0 204 126 333.5t325 129.5q139 0 259.5 -87.5t162.5 -221.5l-120 -54q-23 102 -110 170t-192 68q-148 0 -238 -93t-90 -245v-284h381v-110h-381v-581z" />
    <glyph glyph-name="currency" unicode="&#xa4;" horiz-adv-x="1249" 
d="M253 284l-87 92l105 103q-90 116 -90 265.5t90 264.5l-102 99l87 93l105 -105q117 92 266 92t264 -90l102 100l90 -87l-103 -100q90 -117 90 -267.5t-90 -267.5l103 -100l-87 -92l-105 105q-115 -92 -265.5 -92t-267.5 92zM397 517q97 -94 229 -94.5t226 94.5
q94 93 94 226.5t-96 226.5q-94 92 -225.5 92t-227.5 -94q-91 -93 -91.5 -225.5t91.5 -225.5z" />
    <glyph glyph-name="yen" unicode="&#xa5;" horiz-adv-x="1397" 
d="M771 737v-20h422v-103h-422v-210h422v-102h-422v-302h-144v302h-417v102h417v210h-420v103h420v20l-527 799h153l443 -684l448 684h151z" />
    <glyph glyph-name="brokenbar" unicode="&#xa6;" horiz-adv-x="611" 
d="M251 799v737h107v-737h-107zM251 -307v737h107v-737h-107z" />
    <glyph glyph-name="section" unicode="&#xa7;" horiz-adv-x="1292" 
d="M1065 502q82 -71 82 -179q0 -95 -69.5 -169t-180.5 -111.5t-242 -37.5q-173 0 -309 65.5t-192 165.5l105 61q40 -79 146.5 -130.5t254.5 -51.5q98 0 179.5 23t133 71.5t51.5 113.5q0 57 -44 99.5t-114.5 69t-156 50t-170.5 51.5t-155.5 64t-114.5 96t-44 140
q0 105 82 182q-82 74 -82 179q0 96 63 166t158.5 103t208.5 33q121 0 229.5 -39.5t175.5 -103.5l-87 -72q-51 49 -133.5 78.5t-176.5 29.5q-83 0 -153 -20.5t-116 -64.5t-46 -104q0 -51 34.5 -91t90.5 -64.5t128 -48.5t146.5 -43t146.5 -48t128 -63.5t90.5 -90t34.5 -125.5
q0 -107 -82 -184zM348 896q0 -57 40 -99t111 -70.5t145.5 -50t167.5 -50.5t153 -58q59 48 59 118q0 56 -40 97.5t-111 69.5t-145.5 49.5t-167.5 50.5t-153 58q-59 -43 -59 -115z" />
    <glyph glyph-name="dieresis" unicode="&#xa8;" horiz-adv-x="130" 
d="M256 1216q-46 0 -79.5 32t-33.5 76q0 47 33 78.5t80 31.5q45 0 77.5 -31.5t32.5 -78.5q0 -44 -33 -76t-77 -32zM627 1216q-44 0 -77 32t-33 76q0 47 32.5 78.5t77.5 31.5q46 0 78 -31.5t32 -78.5q0 -44 -32 -76t-78 -32z" />
    <glyph glyph-name="copyright" unicode="&#xa9;" horiz-adv-x="1830" 
d="M914 -20q-160 0 -305.5 62.5t-251.5 168t-169 251.5t-63 306t63 306t169 251.5t251.5 168t305.5 62.5t306 -62.5t251.5 -168t168 -251.5t62.5 -306t-62.5 -306t-168 -251.5t-251.5 -168t-306 -62.5zM914 74q143 0 272.5 54.5t222 147t147 221t54.5 271.5t-54.5 271.5
t-147 221t-222 147t-272.5 54.5q-142 0 -270 -54.5t-220 -147t-146.5 -221t-54.5 -271.5t54.5 -271.5t146.5 -221t220 -147t270 -54.5zM932 320q-185 0 -315.5 130.5t-130.5 314.5q0 182 131 312.5t315 130.5q146 0 261.5 -85.5t160.5 -221.5h-141q-39 79 -114.5 126.5
t-166.5 47.5q-131 0 -221.5 -90t-90.5 -220q0 -132 90.5 -222t221.5 -90q91 0 166.5 47.5t114.5 126.5h141q-45 -136 -160.5 -221.5t-261.5 -85.5z" />
    <glyph glyph-name="ordfeminine" unicode="&#xaa;" horiz-adv-x="883" 
d="M660 1536h88v-614h-88v138q-39 -70 -106.5 -110.5t-151.5 -40.5q-129 0 -220.5 93t-91.5 227q0 133 91.5 226.5t220.5 93.5q83 0 151 -41t107 -110v138zM417 986q100 0 171.5 71t71.5 172q0 98 -71.5 168t-171.5 70t-170 -70t-70 -168q0 -102 70 -172.5t170 -70.5z" />
    <glyph glyph-name="guillemotleft" unicode="&#xab;" horiz-adv-x="1308" 
d="M556 195l-310 376l310 376h138l-313 -376l313 -376h-138zM927 195l-313 376l313 376h138l-310 -376l310 -376h-138z" />
    <glyph glyph-name="logicalnot" unicode="&#xac;" horiz-adv-x="1633" 
d="M1313 238v525h-1111v120h1232v-645h-121z" />
    <glyph glyph-name="uni00AD" unicode="&#xad;" horiz-adv-x="936" 
d="M102 456v153h717v-153h-717z" />
    <glyph glyph-name="registered" unicode="&#xae;" horiz-adv-x="1830" 
d="M914 1556q160 0 306 -62.5t251.5 -168t168 -251.5t62.5 -306t-62.5 -306t-168 -251.5t-251.5 -168t-306 -62.5t-305.5 62.5t-251.5 168t-169 251.5t-63 306t63 306t169 251.5t251.5 168t305.5 62.5zM914 74q143 0 272.5 54.5t222 147t147 221t54.5 271.5t-54.5 271.5
t-147 221t-222 147t-272.5 54.5q-142 0 -270 -54.5t-220 -147t-146.5 -221t-54.5 -271.5t54.5 -271.5t146.5 -221t220 -147t270 -54.5zM1198 942q0 -78 -45.5 -137.5t-118.5 -80.5l195 -355h-100l-195 345h-138v-345h-89v798h258q98 0 165.5 -65.5t67.5 -159.5zM796 1080
v-276h169q60 0 100.5 39.5t40.5 98.5q0 58 -41 98t-100 40h-169z" />
    <glyph glyph-name="macron" unicode="&#xaf;" horiz-adv-x="158" 
d="M120 1236v108h551v-108h-551z" />
    <glyph glyph-name="degree" unicode="&#xb0;" horiz-adv-x="1034" 
d="M517 1009q-113 0 -193.5 80.5t-80.5 193.5t80.5 193t193.5 80t193.5 -80t80.5 -193t-80.5 -193.5t-193.5 -80.5zM517 1096q79 0 133 54t54 133t-54 132.5t-133 53.5t-133 -53.5t-54 -132.5t54 -133t133 -54z" />
    <glyph glyph-name="plusminus" unicode="&#xb1;" horiz-adv-x="1656" 
d="M896 891h640v-138h-640v-369h-136v369h-640v138h640v369h136v-369zM120 0v123h1416v-123h-1416z" />
    <glyph glyph-name="uni00B2" unicode="&#xb2;" horiz-adv-x="783" 
d="M282 883h355v-79h-532l310 340q71 78 93 116t22 79q0 64 -39.5 100t-98.5 38q-61 0 -101 -38.5t-38 -102.5h-87q-2 96 64 158t164 62q92 -2 154 -57t66 -147q2 -61 -27 -112.5t-116 -148.5z" />
    <glyph glyph-name="uni00B3" unicode="&#xb3;" horiz-adv-x="747" 
d="M369 1231q99 0 167 -63.5t68 -158.5q0 -93 -67 -159.5t-163 -66.5q-94 0 -161 63.5t-67 151.5h82q0 -57 43 -96t103 -39q62 0 105 44t43 107q0 61 -42.5 99.5t-105.5 38.5h-177l236 305h-287v76h440l-238 -302h21z" />
    <glyph glyph-name="acute" unicode="&#xb4;" horiz-adv-x="130" 
d="M20 1157l226 379h184l-302 -379h-108z" />
    <glyph glyph-name="uni00B5" unicode="&#xb5;" horiz-adv-x="1221" 
d="M911 1024h157v-1024h-157v159q-56 -84 -142.5 -131.5t-187.5 -47.5q-161 0 -276 110v-602h-123v1536h158v-622q0 -117 82.5 -199.5t199.5 -82.5q119 0 204 82.5t85 199.5v622z" />
    <glyph glyph-name="paragraph" unicode="&#xb6;" horiz-adv-x="1290" 
d="M655 -307v1157h-69q-171 0 -267 89t-96 254q0 167 96 255t267 88h159v-1843h-90zM937 -307v1843h90v-1843h-90z" />
    <glyph glyph-name="periodcentered" unicode="&#xb7;" horiz-adv-x="586" 
d="M292 648q-37 0 -63.5 25.5t-26.5 63.5q0 37 26.5 63.5t63.5 26.5t64.5 -26.5t27.5 -63.5q0 -38 -27.5 -63.5t-64.5 -25.5z" />
    <glyph glyph-name="cedilla" unicode="&#xb8;" horiz-adv-x="138" 
d="M315 -532q-69 0 -138.5 39t-97.5 94l87 35q23 -31 67 -52.5t82 -21.5q48 0 81.5 34t33.5 84q0 69 -58.5 96t-143.5 -6l-77 51l90 179h97l-67 -136q105 21 179.5 -33.5t74.5 -150.5q0 -89 -60.5 -150.5t-149.5 -61.5z" />
    <glyph glyph-name="uni00B9" unicode="&#xb9;" horiz-adv-x="570" 
d="M218 768v691h-118v77h205v-768h-87z" />
    <glyph glyph-name="ordmasculine" unicode="&#xba;" horiz-adv-x="837" 
d="M417 909q-137 0 -232 93t-95 227q0 133 95.5 226.5t231.5 93.5q137 0 234 -93.5t97 -226.5q0 -134 -97 -227t-234 -93zM417 986q100 0 171.5 71t71.5 172q0 98 -71.5 168t-171.5 70t-170 -70t-70 -168q0 -102 70 -172.5t170 -70.5z" />
    <glyph glyph-name="guillemotright" unicode="&#xbb;" horiz-adv-x="1308" 
d="M243 195l310 376l-310 376h136l312 -376l-312 -376h-136zM612 195l312 376l-312 376h141l312 -376l-312 -376h-141z" />
    <glyph glyph-name="onequarter" unicode="&#xbc;" horiz-adv-x="2145" 
d="M379 512h-108v916h-171v108h279v-1024zM1446 1531h128l-1072 -1536h-126zM2004 325v-110h-107v-215h-110v215h-494l468 809h136v-699h107zM1459 325h328v574z" />
    <glyph glyph-name="onehalf" unicode="&#xbd;" horiz-adv-x="2178" 
d="M379 512h-108v916h-171v108h279v-1024zM1423 1536h128l-1072 -1536h-126zM1574 110h489v-110h-737l430 468q97 108 128 162t31 110q0 89 -54.5 139.5t-135.5 52.5q-85 0 -139.5 -53.5t-54.5 -143.5h-118q-2 136 89.5 221t228.5 83q126 0 212 -76.5t90 -204.5
q4 -86 -36 -156t-164 -205z" />
    <glyph glyph-name="threequarters" unicode="&#xbe;" horiz-adv-x="2191" 
d="M778 817q0 -131 -93 -222t-227 -91q-130 0 -222.5 87t-92.5 210h113q0 -80 59.5 -134.5t142.5 -54.5q87 0 147.5 61t60.5 149q0 83 -59.5 136t-145.5 53h-246l325 423h-397v107h610l-328 -420h28q137 0 231 -87t94 -217zM1572 1531h128l-1073 -1536h-125zM2051 325v-110
h-108v-215h-110v215h-494l468 809h136v-699h108zM1505 325h328v574z" />
    <glyph glyph-name="questiondown" unicode="&#xbf;" horiz-adv-x="1241" 
d="M573 832q-46 0 -79 33t-33 77q0 46 33 78t79 32q45 0 78 -32.5t33 -77.5q0 -44 -33.5 -77t-77.5 -33zM581 -614q-190 0 -315 118.5t-125 300.5q0 71 15.5 127t41.5 91t59 65t67 48.5t67 41t59 44t41.5 55t15.5 76.5v251h146v-233q0 -76 -20.5 -131.5t-53 -87t-72 -56
t-79.5 -47t-72.5 -51t-53 -77t-20.5 -116.5q0 -123 84 -202t215 -79q123 0 206 79t89 200h143q-4 -181 -128 -299t-310 -118z" />
    <glyph glyph-name="Agrave" unicode="&#xc0;" horiz-adv-x="1292" 
d="M712 1669h-108l-302 379h184zM1114 0l-126 358h-683l-126 -358h-179l556 1536h181l556 -1536h-179zM358 515h576l-286 826z" />
    <glyph glyph-name="Aacute" unicode="&#xc1;" horiz-adv-x="1292" 
d="M993 2048l-302 -379h-107l225 379h184zM1114 0l-126 358h-683l-126 -358h-179l556 1536h181l556 -1536h-179zM358 515h576l-286 826z" />
    <glyph glyph-name="Acircumflex" unicode="&#xc2;" horiz-adv-x="1292" 
d="M648 1943l-159 -274h-123l200 379h164l202 -379h-126zM1114 0l-126 358h-683l-126 -358h-179l556 1536h181l556 -1536h-179zM358 515h576l-286 826z" />
    <glyph glyph-name="Atilde" unicode="&#xc3;" horiz-adv-x="1292" 
d="M512 1876q-49 0 -75.5 -44t-26.5 -114h-118q0 120 58.5 198t156.5 78q62 0 105.5 -29.5t81.5 -82.5q19 -27 38.5 -42t50.5 -15q100 0 100 159h118q0 -120 -58 -198t-160 -78q-111 0 -187 112q-33 56 -84 56zM1114 0l-126 358h-683l-126 -358h-179l556 1536h181l556 -1536
h-179zM358 515h576l-286 826z" />
    <glyph glyph-name="Adieresis" unicode="&#xc4;" horiz-adv-x="1292" 
d="M463 1728q-46 0 -79 32t-33 76q0 47 33 78.5t79 31.5q45 0 77.5 -31.5t32.5 -78.5q0 -44 -33 -76t-77 -32zM835 1728q-45 0 -78 32t-33 76q0 47 33 78.5t78 31.5q46 0 78 -31.5t32 -78.5q0 -44 -32 -76t-78 -32zM1114 0l-126 358h-683l-126 -358h-179l556 1536h181
l556 -1536h-179zM358 515h576l-286 826z" />
    <glyph glyph-name="Aring" unicode="&#xc5;" horiz-adv-x="1292" 
d="M1114 0l-126 358h-683l-126 -358h-179l538 1485q-47 29 -75 77t-28 102q0 88 63 150t152 62q87 0 148.5 -62t61.5 -150q0 -57 -28 -106t-74 -76l535 -1482h-179zM650 1792q-53 0 -89 -37.5t-36 -90.5q0 -54 35.5 -89.5t89.5 -35.5q51 0 87 36t36 89q0 52 -36.5 90
t-86.5 38zM358 515h576l-286 826z" />
    <glyph glyph-name="AE" unicode="&#xc6;" horiz-adv-x="1817" 
d="M1661 1372h-675v-522h588v-164h-588v-522h675v-164h-837v366h-494l-143 -366h-187l617 1536h1044v-164zM392 522h432v873h-89z" />
    <glyph glyph-name="Ccedilla" unicode="&#xc7;" horiz-adv-x="1684" 
d="M914 143q174 0 319.5 85.5t225.5 229.5l141 -79q-100 -174 -271 -281t-377 -118l-56 -116q105 21 179 -33.5t74 -150.5q0 -89 -60 -150.5t-149 -61.5q-69 0 -138.5 39t-97.5 94l87 35q23 -31 67 -52.5t82 -21.5q48 0 81.5 34t33.5 84q0 69 -59 96t-144 -6l-76 51l79 161
q-150 10 -285 76.5t-233 171t-155 245t-57 293.5q0 160 62.5 306t168.5 251.5t252 168t306 62.5q217 0 399.5 -108.5t286.5 -290.5l-141 -79q-80 144 -225.5 229.5t-319.5 85.5q-170 0 -314 -83t-227.5 -227t-83.5 -315t83.5 -315t227.5 -227t314 -83z" />
    <glyph glyph-name="Egrave" unicode="&#xc8;" horiz-adv-x="1192" 
d="M684 1669h-108l-302 379h184zM1039 1377h-675v-530h588v-158h-588v-530h675v-159h-839v1536h839v-159z" />
    <glyph glyph-name="Eacute" unicode="&#xc9;" horiz-adv-x="1192" 
d="M965 2048l-302 -379h-107l225 379h184zM1039 1377h-675v-530h588v-158h-588v-530h675v-159h-839v1536h839v-159z" />
    <glyph glyph-name="Ecircumflex" unicode="&#xca;" horiz-adv-x="1192" 
d="M620 1943l-159 -274h-123l200 379h163l203 -379h-126zM1039 1377h-675v-530h588v-158h-588v-530h675v-159h-839v1536h839v-159z" />
    <glyph glyph-name="Edieresis" unicode="&#xcb;" horiz-adv-x="1192" 
d="M435 1728q-46 0 -79 32t-33 76q0 47 33 78.5t79 31.5q45 0 77.5 -31.5t32.5 -78.5q0 -44 -33 -76t-77 -32zM806 1728q-44 0 -77 32t-33 76q0 47 32.5 78.5t77.5 31.5q46 0 78 -31.5t32 -78.5q0 -44 -32 -76t-78 -32zM1039 1377h-675v-530h588v-158h-588v-530h675v-159
h-839v1536h839v-159z" />
    <glyph glyph-name="Igrave" unicode="&#xcc;" horiz-adv-x="560" 
d="M346 1669h-108l-302 379h184zM200 0v1536h164v-1536h-164z" />
    <glyph glyph-name="Iacute" unicode="&#xcd;" horiz-adv-x="560" 
d="M218 1669l225 379h184l-302 -379h-107zM200 0v1536h164v-1536h-164z" />
    <glyph glyph-name="Icircumflex" unicode="&#xce;" horiz-adv-x="560" 
d="M123 1669h-123l200 379h164l202 -379h-126l-158 274zM200 0v1536h164v-1536h-164z" />
    <glyph glyph-name="Idieresis" unicode="&#xcf;" horiz-adv-x="560" 
d="M97 1728q-46 0 -79 32t-33 76q0 47 33 78.5t79 31.5q45 0 77.5 -31.5t32.5 -78.5q0 -44 -33 -76t-77 -32zM468 1728q-44 0 -77 32t-33 76q0 47 32.5 78.5t77.5 31.5q46 0 78.5 -31.5t32.5 -78.5q0 -44 -32.5 -76t-78.5 -32zM200 0v1536h164v-1536h-164z" />
    <glyph glyph-name="Eth" unicode="&#xd0;" horiz-adv-x="1500" 
d="M607 1536q156 0 298 -60.5t245 -163.5t164 -245.5t61 -298.5t-61 -298.5t-164 -245.5t-245 -163.5t-298 -60.5h-420v694h-159v153h159v689h420zM604 164q168 0 307 78t219.5 217t80.5 309t-80.5 309t-219.5 217t-307 78h-256v-525h274v-153h-274v-530h256z" />
    <glyph glyph-name="Ntilde" unicode="&#xd1;" horiz-adv-x="1638" 
d="M678 1876q-49 0 -75.5 -44t-26.5 -114h-118q0 120 58.5 198t156.5 78q62 0 105.5 -29.5t81.5 -82.5q19 -27 39 -42t51 -15q100 0 100 159h117q0 -120 -57.5 -198t-159.5 -78q-111 0 -187 112q-33 56 -85 56zM1290 1536h162v-1536h-154l-947 1262v-1262h-164v1536h153
l950 -1262v1262z" />
    <glyph glyph-name="Ograve" unicode="&#xd2;" horiz-adv-x="1830" 
d="M978 1669h-108l-302 379h185zM914 -20q-160 0 -306 62.5t-252 168t-168.5 251.5t-62.5 306t62.5 306t168.5 251.5t252 168t306 62.5q161 0 307.5 -62.5t251.5 -168t167 -251.5t62 -306t-62 -306t-167 -251.5t-251.5 -168t-307.5 -62.5zM914 143q128 0 244 49t199.5 132.5
t132.5 199.5t49 244t-49 244t-132.5 199.5t-199.5 132.5t-244 49q-170 0 -314 -83t-227.5 -227t-83.5 -315t83.5 -315t227.5 -227t314 -83z" />
    <glyph glyph-name="Oacute" unicode="&#xd3;" horiz-adv-x="1830" 
d="M850 1669l225 379h185l-303 -379h-107zM914 -20q-160 0 -306 62.5t-252 168t-168.5 251.5t-62.5 306t62.5 306t168.5 251.5t252 168t306 62.5q161 0 307.5 -62.5t251.5 -168t167 -251.5t62 -306t-62 -306t-167 -251.5t-251.5 -168t-307.5 -62.5zM914 143q128 0 244 49
t199.5 132.5t132.5 199.5t49 244t-49 244t-132.5 199.5t-199.5 132.5t-244 49q-170 0 -314 -83t-227.5 -227t-83.5 -315t83.5 -315t227.5 -227t314 -83z" />
    <glyph glyph-name="Ocircumflex" unicode="&#xd4;" horiz-adv-x="1830" 
d="M755 1669h-123l200 379h164l202 -379h-125l-159 274zM914 -20q-160 0 -306 62.5t-252 168t-168.5 251.5t-62.5 306t62.5 306t168.5 251.5t252 168t306 62.5q161 0 307.5 -62.5t251.5 -168t167 -251.5t62 -306t-62 -306t-167 -251.5t-251.5 -168t-307.5 -62.5zM914 143
q128 0 244 49t199.5 132.5t132.5 199.5t49 244t-49 244t-132.5 199.5t-199.5 132.5t-244 49q-170 0 -314 -83t-227.5 -227t-83.5 -315t83.5 -315t227.5 -227t314 -83z" />
    <glyph glyph-name="Otilde" unicode="&#xd5;" horiz-adv-x="1830" 
d="M1050 1708q-111 0 -187 112q-33 56 -85 56q-49 0 -75.5 -44t-26.5 -114h-118q0 120 58.5 198t156.5 78q62 0 105.5 -29.5t81.5 -82.5q19 -27 39 -42t51 -15q99 0 99 159h118q0 -120 -57.5 -198t-159.5 -78zM914 -20q-160 0 -306 62.5t-252 168t-168.5 251.5t-62.5 306
t62.5 306t168.5 251.5t252 168t306 62.5q161 0 307.5 -62.5t251.5 -168t167 -251.5t62 -306t-62 -306t-167 -251.5t-251.5 -168t-307.5 -62.5zM914 143q128 0 244 49t199.5 132.5t132.5 199.5t49 244t-49 244t-132.5 199.5t-199.5 132.5t-244 49q-170 0 -314 -83
t-227.5 -227t-83.5 -315t83.5 -315t227.5 -227t314 -83z" />
    <glyph glyph-name="Odieresis" unicode="&#xd6;" horiz-adv-x="1830" 
d="M730 1728q-46 0 -79.5 32t-33.5 76q0 47 33 78.5t80 31.5q45 0 77.5 -31.5t32.5 -78.5q0 -44 -33 -76t-77 -32zM1101 1728q-44 0 -77 32t-33 76q0 47 32.5 78.5t77.5 31.5q46 0 78 -31.5t32 -78.5q0 -44 -32 -76t-78 -32zM914 -20q-160 0 -306 62.5t-252 168
t-168.5 251.5t-62.5 306t62.5 306t168.5 251.5t252 168t306 62.5q161 0 307.5 -62.5t251.5 -168t167 -251.5t62 -306t-62 -306t-167 -251.5t-251.5 -168t-307.5 -62.5zM914 143q128 0 244 49t199.5 132.5t132.5 199.5t49 244t-49 244t-132.5 199.5t-199.5 132.5t-244 49
q-170 0 -314 -83t-227.5 -227t-83.5 -315t83.5 -315t227.5 -227t314 -83z" />
    <glyph glyph-name="multiply" unicode="&#xd7;" horiz-adv-x="1500" 
d="M1252 965l-330 -330l330 -330l-167 -172l-332 333l-333 -333l-167 172l331 330l-331 330l167 172l333 -333l332 333z" />
    <glyph glyph-name="Oslash" unicode="&#xd8;" horiz-adv-x="1830" 
d="M1423 1372q131 -112 205 -268.5t74 -335.5q0 -160 -62 -306t-167 -251.5t-251.5 -168t-307.5 -62.5q-206 0 -389 102l-123 -174l-120 74l125 182q-132 109 -207 267t-75 337q0 160 62.5 306t168.5 251.5t252 168t306 62.5q215 0 394 -104l120 174l118 -77zM289 768
q0 -139 56.5 -261t156.5 -210l711 1021q-147 75 -299 75q-170 0 -314 -83t-227.5 -227t-83.5 -315zM914 143q128 0 244 49t199.5 132.5t132.5 199.5t49 244q0 138 -56 259.5t-154 208.5l-712 -1018q138 -75 297 -75z" />
    <glyph glyph-name="Ugrave" unicode="&#xd9;" horiz-adv-x="1512" 
d="M819 1669h-107l-302 379h184zM755 -20q-164 0 -296 67.5t-206 187.5t-74 269v1032h164v-1006q0 -167 117 -277t295 -110q179 0 297 110t118 277v1006h164v-1032q0 -149 -74.5 -269t-207 -187.5t-297.5 -67.5z" />
    <glyph glyph-name="Uacute" unicode="&#xda;" horiz-adv-x="1512" 
d="M691 1669l225 379h185l-302 -379h-108zM755 -20q-164 0 -296 67.5t-206 187.5t-74 269v1032h164v-1006q0 -167 117 -277t295 -110q179 0 297 110t118 277v1006h164v-1032q0 -149 -74.5 -269t-207 -187.5t-297.5 -67.5z" />
    <glyph glyph-name="Ucircumflex" unicode="&#xdb;" horiz-adv-x="1512" 
d="M596 1669h-122l199 379h164l202 -379h-125l-159 274zM755 -20q-164 0 -296 67.5t-206 187.5t-74 269v1032h164v-1006q0 -167 117 -277t295 -110q179 0 297 110t118 277v1006h164v-1032q0 -149 -74.5 -269t-207 -187.5t-297.5 -67.5z" />
    <glyph glyph-name="Udieresis" unicode="&#xdc;" horiz-adv-x="1512" 
d="M571 1728q-46 0 -79.5 32t-33.5 76q0 47 33 78.5t80 31.5q45 0 77.5 -31.5t32.5 -78.5q0 -44 -33 -76t-77 -32zM942 1728q-44 0 -77 32t-33 76q0 47 32.5 78.5t77.5 31.5q46 0 78 -31.5t32 -78.5q0 -44 -32 -76t-78 -32zM755 -20q-164 0 -296 67.5t-206 187.5t-74 269
v1032h164v-1006q0 -167 117 -277t295 -110q179 0 297 110t118 277v1006h164v-1032q0 -149 -74.5 -269t-207 -187.5t-297.5 -67.5z" />
    <glyph glyph-name="Yacute" unicode="&#xdd;" horiz-adv-x="1241" 
d="M968 2048l-302 -379h-108l225 379h185zM1239 1536l-535 -806v-730h-164v727l-537 809h204l415 -637l415 637h202z" />
    <glyph glyph-name="Thorn" unicode="&#xde;" horiz-adv-x="1256" 
d="M748 1324q177 0 302 -126t125 -305q0 -177 -125 -299.5t-302 -122.5h-387v-471h-159v1324v212h159v-212h387zM735 630q121 0 198.5 75t77.5 194q0 117 -78 191.5t-198 74.5h-374v-535h374z" />
    <glyph glyph-name="germandbls" unicode="&#xdf;" horiz-adv-x="1390" 
d="M978 783q115 -53 184 -155.5t69 -230.5q0 -172 -117 -284.5t-285 -112.5h-297v164h272q112 0 189 64t77 176q0 121 -85.5 205.5t-208.5 84.5h-121v133h52q119 0 201.5 84t82.5 205q0 122 -85.5 200.5t-221.5 78.5q-138 0 -230.5 -84t-92.5 -210v-1101h-159v1101
q0 188 138 311.5t344 123.5q199 0 328.5 -118t129.5 -299q0 -102 -44 -189.5t-120 -146.5z" />
    <glyph glyph-name="agrave" unicode="&#xe0;" horiz-adv-x="1379" 
d="M712 1157h-108l-302 379h184zM1285 133h64v-133q-31 -20 -77 -20q-88 0 -149 47.5t-86 128.5q-75 -82 -176 -129t-213 -47q-145 0 -267.5 71t-194 193.5t-71.5 267.5t71.5 267.5t194 193.5t267.5 71q108 0 204.5 -40.5t168.5 -112.5v133h159v-758q0 -67 29.5 -100
t75.5 -33zM648 138q154 0 263.5 109.5t109.5 264.5t-109.5 264.5t-263.5 109.5q-155 0 -264.5 -109.5t-109.5 -264.5t109.5 -264.5t264.5 -109.5z" />
    <glyph glyph-name="aacute" unicode="&#xe1;" horiz-adv-x="1379" 
d="M993 1536l-302 -379h-107l225 379h184zM1285 133h64v-133q-31 -20 -77 -20q-88 0 -149 47.5t-86 128.5q-75 -82 -176 -129t-213 -47q-145 0 -267.5 71t-194 193.5t-71.5 267.5t71.5 267.5t194 193.5t267.5 71q108 0 204.5 -40.5t168.5 -112.5v133h159v-758
q0 -67 29.5 -100t75.5 -33zM648 138q154 0 263.5 109.5t109.5 264.5t-109.5 264.5t-263.5 109.5q-155 0 -264.5 -109.5t-109.5 -264.5t109.5 -264.5t264.5 -109.5z" />
    <glyph glyph-name="acircumflex" unicode="&#xe2;" horiz-adv-x="1379" 
d="M648 1431l-159 -274h-123l200 379h164l202 -379h-126zM1285 133h64v-133q-31 -20 -77 -20q-88 0 -149 47.5t-86 128.5q-75 -82 -176 -129t-213 -47q-145 0 -267.5 71t-194 193.5t-71.5 267.5t71.5 267.5t194 193.5t267.5 71q108 0 204.5 -40.5t168.5 -112.5v133h159v-758
q0 -67 29.5 -100t75.5 -33zM648 138q154 0 263.5 109.5t109.5 264.5t-109.5 264.5t-263.5 109.5q-155 0 -264.5 -109.5t-109.5 -264.5t109.5 -264.5t264.5 -109.5z" />
    <glyph glyph-name="atilde" unicode="&#xe3;" horiz-adv-x="1379" 
d="M512 1364q-49 0 -75.5 -44t-26.5 -114h-118q0 120 58.5 198t156.5 78q62 0 105.5 -29.5t81.5 -82.5q19 -27 38.5 -42t50.5 -15q100 0 100 159h118q0 -120 -58 -198t-160 -78q-111 0 -187 112q-33 56 -84 56zM1285 133h64v-133q-31 -20 -77 -20q-88 0 -149 47.5t-86 128.5
q-75 -82 -176 -129t-213 -47q-145 0 -267.5 71t-194 193.5t-71.5 267.5t71.5 267.5t194 193.5t267.5 71q108 0 204.5 -40.5t168.5 -112.5v133h159v-758q0 -67 29.5 -100t75.5 -33zM648 138q154 0 263.5 109.5t109.5 264.5t-109.5 264.5t-263.5 109.5q-155 0 -264.5 -109.5
t-109.5 -264.5t109.5 -264.5t264.5 -109.5z" />
    <glyph glyph-name="adieresis" unicode="&#xe4;" horiz-adv-x="1379" 
d="M463 1216q-46 0 -79 32t-33 76q0 47 33 78.5t79 31.5q45 0 77.5 -31.5t32.5 -78.5q0 -44 -33 -76t-77 -32zM835 1216q-45 0 -78 32t-33 76q0 47 33 78.5t78 31.5q46 0 78 -31.5t32 -78.5q0 -44 -32 -76t-78 -32zM1285 133h64v-133q-31 -20 -77 -20q-88 0 -149 47.5
t-86 128.5q-75 -82 -176 -129t-213 -47q-145 0 -267.5 71t-194 193.5t-71.5 267.5t71.5 267.5t194 193.5t267.5 71q108 0 204.5 -40.5t168.5 -112.5v133h159v-758q0 -67 29.5 -100t75.5 -33zM648 138q154 0 263.5 109.5t109.5 264.5t-109.5 264.5t-263.5 109.5
q-155 0 -264.5 -109.5t-109.5 -264.5t109.5 -264.5t264.5 -109.5z" />
    <glyph glyph-name="aring" unicode="&#xe5;" horiz-adv-x="1379" 
d="M648 1121q-88 0 -151.5 63t-63.5 150q0 88 63 150t152 62q87 0 148.5 -62t61.5 -150q0 -87 -62 -150t-148 -63zM648 1462q-53 0 -89.5 -38t-36.5 -90q0 -54 36 -90t90 -36q51 0 87 36.5t36 89.5q0 52 -36.5 90t-86.5 38zM1285 133h64v-133q-31 -20 -77 -20
q-88 0 -149 47.5t-86 128.5q-75 -82 -176 -129t-213 -47q-145 0 -267.5 71t-194 193.5t-71.5 267.5t71.5 267.5t194 193.5t267.5 71q108 0 204.5 -40.5t168.5 -112.5v133h159v-758q0 -67 29.5 -100t75.5 -33zM648 138q154 0 263.5 109.5t109.5 264.5t-109.5 264.5
t-263.5 109.5q-155 0 -264.5 -109.5t-109.5 -264.5t109.5 -264.5t264.5 -109.5z" />
    <glyph glyph-name="ae" unicode="&#xe6;" horiz-adv-x="1991" 
d="M1889 522l-2 -33h-904q8 -148 115.5 -249.5t258.5 -101.5q115 0 208 61t135 162h169q-51 -167 -191.5 -274t-320.5 -107q-129 0 -240 56.5t-185 155.5q-103 -99 -221 -155.5t-225 -56.5q-164 0 -267.5 90.5t-103.5 236.5q0 149 110 236t295 87h297v41q0 106 -72 174.5
t-182 68.5q-85 0 -155 -44t-91 -112l-158 54q41 103 152.5 167.5t254.5 64.5q128 0 226.5 -54.5t147.5 -147.5q74 94 183 148t234 54q144 0 264.5 -68.5t192 -188.5t75.5 -265zM1357 886q-121 0 -217.5 -70.5t-135.5 -183.5h704q-37 112 -133 183t-218 71zM486 125
q85 0 186 55.5t186 147.5q-30 81 -34 156h-304q-118 0 -182 -47t-64 -135q0 -81 57 -129t155 -48z" />
    <glyph glyph-name="ccedilla" unicode="&#xe7;" horiz-adv-x="1221" 
d="M648 138q110 0 201 57.5t137 152.5h169q-48 -151 -172 -251t-282 -115l-58 -118q105 21 179 -33.5t74 -150.5q0 -89 -60.5 -150.5t-149.5 -61.5q-69 0 -138 39t-97 94l87 35q23 -31 66.5 -52.5t81.5 -21.5q48 0 81.5 34t33.5 84q0 69 -58.5 96t-143.5 -6l-77 51l80 161
q-204 17 -345.5 169.5t-141.5 360.5q0 145 71.5 267.5t194 193.5t267.5 71q177 0 316 -102.5t191 -265.5h-169q-46 95 -137 152.5t-201 57.5q-156 0 -265 -108.5t-109 -265.5t109 -265.5t265 -108.5z" />
    <glyph glyph-name="egrave" unicode="&#xe8;" horiz-adv-x="1285" 
d="M722 1167h-108l-302 379h185zM1180 522l-2 -33h-904q8 -148 115.5 -249.5t258.5 -101.5q115 0 208 61t135 162h169q-51 -167 -191.5 -274t-320.5 -107q-145 0 -267.5 71t-194 193.5t-71.5 267.5t71.5 267.5t194 193.5t267.5 71q144 0 264.5 -68.5t192 -188.5t75.5 -265z
M648 886q-121 0 -218 -70.5t-136 -183.5h704q-37 113 -133 183.5t-217 70.5z" />
    <glyph glyph-name="eacute" unicode="&#xe9;" horiz-adv-x="1285" 
d="M1004 1546l-303 -379h-107l225 379h185zM1180 522l-2 -33h-904q8 -148 115.5 -249.5t258.5 -101.5q115 0 208 61t135 162h169q-51 -167 -191.5 -274t-320.5 -107q-145 0 -267.5 71t-194 193.5t-71.5 267.5t71.5 267.5t194 193.5t267.5 71q144 0 264.5 -68.5t192 -188.5
t75.5 -265zM648 886q-121 0 -218 -70.5t-136 -183.5h704q-37 113 -133 183.5t-217 70.5z" />
    <glyph glyph-name="ecircumflex" unicode="&#xea;" horiz-adv-x="1285" 
d="M658 1441l-159 -274h-123l200 379h164l202 -379h-125zM1180 522l-2 -33h-904q8 -148 115.5 -249.5t258.5 -101.5q115 0 208 61t135 162h169q-51 -167 -191.5 -274t-320.5 -107q-145 0 -267.5 71t-194 193.5t-71.5 267.5t71.5 267.5t194 193.5t267.5 71q144 0 264.5 -68.5
t192 -188.5t75.5 -265zM648 886q-121 0 -218 -70.5t-136 -183.5h704q-37 113 -133 183.5t-217 70.5z" />
    <glyph glyph-name="edieresis" unicode="&#xeb;" horiz-adv-x="1285" 
d="M474 1226q-46 0 -79.5 32t-33.5 76q0 47 33 78.5t80 31.5q45 0 77.5 -31.5t32.5 -78.5q0 -44 -33 -76t-77 -32zM845 1226q-44 0 -77 32t-33 76q0 47 32.5 78.5t77.5 31.5q46 0 78 -31.5t32 -78.5q0 -44 -32 -76t-78 -32zM1180 522l-2 -33h-904q8 -148 115.5 -249.5
t258.5 -101.5q115 0 208 61t135 162h169q-51 -167 -191.5 -274t-320.5 -107q-145 0 -267.5 71t-194 193.5t-71.5 267.5t71.5 267.5t194 193.5t267.5 71q144 0 264.5 -68.5t192 -188.5t75.5 -265zM648 886q-121 0 -218 -70.5t-136 -183.5h704q-37 113 -133 183.5t-217 70.5z
" />
    <glyph glyph-name="igrave" unicode="&#xec;" horiz-adv-x="560" 
d="M346 1157h-108l-302 379h184zM202 0v1024h159v-1024h-159z" />
    <glyph glyph-name="iacute" unicode="&#xed;" horiz-adv-x="560" 
d="M218 1157l225 379h184l-302 -379h-107zM202 0v1024h159v-1024h-159z" />
    <glyph glyph-name="icircumflex" unicode="&#xee;" horiz-adv-x="560" 
d="M123 1157h-123l200 379h164l202 -379h-126l-158 274zM202 0v1024h159v-1024h-159z" />
    <glyph glyph-name="idieresis" unicode="&#xef;" horiz-adv-x="560" 
d="M97 1216q-46 0 -79 32t-33 76q0 47 33 78.5t79 31.5q45 0 77.5 -31.5t32.5 -78.5q0 -44 -33 -76t-77 -32zM468 1216q-44 0 -77 32t-33 76q0 47 32.5 78.5t77.5 31.5q46 0 78.5 -31.5t32.5 -78.5q0 -44 -32.5 -76t-78.5 -32zM202 0v1024h159v-1024h-159z" />
    <glyph glyph-name="eth" unicode="&#xf0;" horiz-adv-x="1313" 
d="M840 1398q173 -140 273 -373.5t100 -512.5q0 -108 -43.5 -206.5t-116.5 -170t-174.5 -113.5t-212.5 -42q-112 0 -214.5 42t-176 113.5t-117 170t-43.5 206.5t43.5 206.5t117 170t176 113.5t214.5 42q178 0 325 -102q-78 221 -233 348l-113 -143l-82 66l108 136
q-131 77 -302 82l30 131q193 0 359 -103l94 118l80 -61zM666 136q155 0 264 110t109 266t-109 266t-264 110q-157 0 -267 -110t-110 -266t110 -266t267 -110z" />
    <glyph glyph-name="ntilde" unicode="&#xf1;" horiz-adv-x="1146" 
d="M445 1364q-49 0 -75.5 -44t-26.5 -114h-118q0 120 58.5 198t156.5 78q62 0 105.5 -29.5t81.5 -82.5q19 -27 39 -42t51 -15q100 0 100 159h117q0 -120 -57.5 -198t-159.5 -78q-111 0 -187 112q-33 56 -85 56zM594 1044q150 0 264.5 -115t114.5 -276v-653h-159v653
q0 98 -67.5 165.5t-165.5 67.5t-166.5 -67.5t-68.5 -165.5v-653h-159v1024h159v-82q107 102 248 102z" />
    <glyph glyph-name="ograve" unicode="&#xf2;" horiz-adv-x="1295" 
d="M712 1157h-108l-302 379h184zM648 -20q-145 0 -267.5 71t-194 193.5t-71.5 267.5t71.5 267.5t194 193.5t267.5 71q220 0 376 -156t156 -376t-156 -376t-376 -156zM648 138q154 0 263.5 109.5t109.5 264.5t-109.5 264.5t-263.5 109.5q-155 0 -264.5 -109.5t-109.5 -264.5
t109.5 -264.5t264.5 -109.5z" />
    <glyph glyph-name="oacute" unicode="&#xf3;" horiz-adv-x="1295" 
d="M584 1157l225 379h184l-302 -379h-107zM648 -20q-145 0 -267.5 71t-194 193.5t-71.5 267.5t71.5 267.5t194 193.5t267.5 71q220 0 376 -156t156 -376t-156 -376t-376 -156zM648 138q154 0 263.5 109.5t109.5 264.5t-109.5 264.5t-263.5 109.5q-155 0 -264.5 -109.5
t-109.5 -264.5t109.5 -264.5t264.5 -109.5z" />
    <glyph glyph-name="ocircumflex" unicode="&#xf4;" horiz-adv-x="1295" 
d="M489 1157h-123l200 379h164l202 -379h-126l-158 274zM648 -20q-145 0 -267.5 71t-194 193.5t-71.5 267.5t71.5 267.5t194 193.5t267.5 71q220 0 376 -156t156 -376t-156 -376t-376 -156zM648 138q154 0 263.5 109.5t109.5 264.5t-109.5 264.5t-263.5 109.5
q-155 0 -264.5 -109.5t-109.5 -264.5t109.5 -264.5t264.5 -109.5z" />
    <glyph glyph-name="otilde" unicode="&#xf5;" horiz-adv-x="1295" 
d="M783 1196q-111 0 -187 112q-33 56 -84 56q-49 0 -75.5 -44t-26.5 -114h-118q0 120 58.5 198t156.5 78q62 0 105.5 -29.5t81.5 -82.5q19 -27 38.5 -42t50.5 -15q100 0 100 159h118q0 -120 -58 -198t-160 -78zM648 -20q-145 0 -267.5 71t-194 193.5t-71.5 267.5t71.5 267.5
t194 193.5t267.5 71q220 0 376 -156t156 -376t-156 -376t-376 -156zM648 138q154 0 263.5 109.5t109.5 264.5t-109.5 264.5t-263.5 109.5q-155 0 -264.5 -109.5t-109.5 -264.5t109.5 -264.5t264.5 -109.5z" />
    <glyph glyph-name="odieresis" unicode="&#xf6;" horiz-adv-x="1295" 
d="M463 1216q-46 0 -79 32t-33 76q0 47 33 78.5t79 31.5q45 0 77.5 -31.5t32.5 -78.5q0 -44 -33 -76t-77 -32zM835 1216q-45 0 -78 32t-33 76q0 47 33 78.5t78 31.5q46 0 78 -31.5t32 -78.5q0 -44 -32 -76t-78 -32zM648 -20q-145 0 -267.5 71t-194 193.5t-71.5 267.5
t71.5 267.5t194 193.5t267.5 71q220 0 376 -156t156 -376t-156 -376t-376 -156zM648 138q154 0 263.5 109.5t109.5 264.5t-109.5 264.5t-263.5 109.5q-155 0 -264.5 -109.5t-109.5 -264.5t109.5 -264.5t264.5 -109.5z" />
    <glyph glyph-name="divide" unicode="&#xf7;" horiz-adv-x="1510" 
d="M755 809q-41 0 -71.5 30t-30.5 72t30.5 72.5t71.5 30.5t72 -30.5t31 -72.5t-31 -72t-72 -30zM141 517v92h1229v-92h-1229zM755 113q-41 0 -71.5 30t-30.5 72t30.5 72t71.5 30t72 -30t31 -72t-31 -72t-72 -30z" />
    <glyph glyph-name="oslash" unicode="&#xf8;" horiz-adv-x="1295" 
d="M993 919q87 -75 137 -181t50 -226q0 -220 -156 -376t-376 -156q-140 0 -261 69l-93 -131l-82 51l95 133q-90 76 -141 182.5t-51 227.5q0 145 71.5 267.5t194 193.5t267.5 71q144 0 266 -71l90 130l81 -51zM274 512q0 -81 33 -153.5t90 -125.5l425 609q-80 44 -174 44
q-155 0 -264.5 -109.5t-109.5 -264.5zM648 138q154 0 263.5 109.5t109.5 264.5q0 165 -120 274l-425 -607q80 -41 172 -41z" />
    <glyph glyph-name="ugrave" unicode="&#xf9;" horiz-adv-x="1072" 
d="M607 1157h-108l-302 379h184zM538 -20q-173 0 -278.5 105.5t-105.5 283.5v655h156v-637q0 -114 64 -181.5t164 -67.5q101 0 164 67.5t63 181.5v637h157v-655q0 -177 -106 -283t-278 -106z" />
    <glyph glyph-name="uacute" unicode="&#xfa;" horiz-adv-x="1072" 
d="M479 1157l225 379h184l-302 -379h-107zM538 -20q-173 0 -278.5 105.5t-105.5 283.5v655h156v-637q0 -114 64 -181.5t164 -67.5q101 0 164 67.5t63 181.5v637h157v-655q0 -177 -106 -283t-278 -106z" />
    <glyph glyph-name="ucircumflex" unicode="&#xfb;" horiz-adv-x="1072" 
d="M384 1157h-123l200 379h164l202 -379h-126l-158 274zM538 -20q-173 0 -278.5 105.5t-105.5 283.5v655h156v-637q0 -114 64 -181.5t164 -67.5q101 0 164 67.5t63 181.5v637h157v-655q0 -177 -106 -283t-278 -106z" />
    <glyph glyph-name="udieresis" unicode="&#xfc;" horiz-adv-x="1072" 
d="M358 1216q-46 0 -79 32t-33 76q0 47 33 78.5t79 31.5q45 0 77.5 -31.5t32.5 -78.5q0 -44 -33 -76t-77 -32zM730 1216q-44 0 -77 32t-33 76q0 47 32.5 78.5t77.5 31.5q46 0 78 -31.5t32 -78.5q0 -44 -32 -76t-78 -32zM538 -20q-173 0 -278.5 105.5t-105.5 283.5v655h156
v-637q0 -114 64 -181.5t164 -67.5q101 0 164 67.5t63 181.5v637h157v-655q0 -177 -106 -283t-278 -106z" />
    <glyph glyph-name="yacute" unicode="&#xfd;" horiz-adv-x="1047" 
d="M870 1536l-302 -379h-107l225 379h184zM845 1024h179l-440 -1101l-218 -537h-169l246 606l-420 1032h177l327 -840z" />
    <glyph glyph-name="thorn" unicode="&#xfe;" horiz-adv-x="1382" 
d="M735 1044q108 0 206.5 -42t170 -113.5t113.5 -170t42 -206.5t-42 -206.5t-113.5 -170t-170 -113.5t-206.5 -42q-218 0 -374 153v-747h-159v2314h159v-809q156 153 374 153zM735 138q154 0 263.5 109.5t109.5 264.5t-109.5 264.5t-263.5 109.5q-155 0 -264.5 -109.5
t-109.5 -264.5t109.5 -264.5t264.5 -109.5z" />
    <glyph glyph-name="ydieresis" unicode="&#xff;" horiz-adv-x="1047" 
d="M340 1216q-46 0 -79 32t-33 76q0 47 33 78.5t79 31.5q45 0 78 -31.5t33 -78.5q0 -44 -33 -76t-78 -32zM712 1216q-44 0 -77 32t-33 76q0 47 32.5 78.5t77.5 31.5q46 0 78 -31.5t32 -78.5q0 -44 -32 -76t-78 -32zM845 1024h179l-440 -1101l-218 -537h-169l246 606
l-420 1032h177l327 -840z" />
    <glyph glyph-name="Amacron" unicode="&#x100;" horiz-adv-x="1292" 
d="M922 1856v-108h-551v108h551zM1114 0l-126 358h-683l-126 -358h-179l556 1536h181l556 -1536h-179zM358 515h576l-286 826z" />
    <glyph glyph-name="amacron" unicode="&#x101;" horiz-adv-x="1379" 
d="M922 1344v-108h-551v108h551zM1285 133h64v-133q-31 -20 -77 -20q-88 0 -149 47.5t-86 128.5q-75 -82 -176 -129t-213 -47q-145 0 -267.5 71t-194 193.5t-71.5 267.5t71.5 267.5t194 193.5t267.5 71q108 0 204.5 -40.5t168.5 -112.5v133h159v-758q0 -67 29.5 -100
t75.5 -33zM648 138q154 0 263.5 109.5t109.5 264.5t-109.5 264.5t-263.5 109.5q-155 0 -264.5 -109.5t-109.5 -264.5t109.5 -264.5t264.5 -109.5z" />
    <glyph glyph-name="Abreve" unicode="&#x102;" horiz-adv-x="1292" 
d="M645 1672q-146 0 -240.5 86t-94.5 226h100q0 -87 67 -148.5t168 -61.5q102 0 170 61.5t68 148.5h100q0 -140 -95 -226t-243 -86zM1114 0l-126 358h-683l-126 -358h-179l556 1536h181l556 -1536h-179zM358 515h576l-286 826z" />
    <glyph glyph-name="abreve" unicode="&#x103;" horiz-adv-x="1379" 
d="M645 1160q-146 0 -240.5 86t-94.5 226h100q0 -87 67 -148.5t168 -61.5q102 0 170 61.5t68 148.5h100q0 -140 -95 -226t-243 -86zM1285 133h64v-133q-31 -20 -77 -20q-88 0 -149 47.5t-86 128.5q-75 -82 -176 -129t-213 -47q-145 0 -267.5 71t-194 193.5t-71.5 267.5
t71.5 267.5t194 193.5t267.5 71q108 0 204.5 -40.5t168.5 -112.5v133h159v-758q0 -67 29.5 -100t75.5 -33zM648 138q154 0 263.5 109.5t109.5 264.5t-109.5 264.5t-263.5 109.5q-155 0 -264.5 -109.5t-109.5 -264.5t109.5 -264.5t264.5 -109.5z" />
    <glyph glyph-name="Aogonek" unicode="&#x104;" horiz-adv-x="1292" 
d="M1364 -348l57 -80q-114 -110 -272 -102q-105 4 -166 60t-61 153q0 93 61.5 167t178.5 150h-48l-126 358h-683l-126 -358h-179l556 1536h181l556 -1536q-60 -35 -99.5 -62.5t-79.5 -65.5t-60 -82t-20 -95q0 -61 36 -99.5t102 -38.5q120 0 192 95zM358 515h576l-286 826z
" />
    <glyph glyph-name="aogonek" unicode="&#x105;" horiz-adv-x="1379" 
d="M1421 -348l56 -80q-114 -110 -271 -102q-105 4 -166.5 60t-61.5 153q0 89 57.5 161.5t165.5 145.5q-60 15 -102 58.5t-62 107.5q-75 -82 -176 -129t-213 -47q-145 0 -267.5 71t-194 193.5t-71.5 267.5t71.5 267.5t194 193.5t267.5 71q108 0 204.5 -40.5t168.5 -112.5v133
h159v-758q0 -67 29.5 -100t75.5 -33h64v-133q-1 0 -2 -1.5t-3 -1.5q-58 -35 -97 -62.5t-78 -65t-58.5 -81t-19.5 -93.5q0 -61 36 -99.5t102 -38.5q120 0 192 95zM648 138q154 0 263.5 109.5t109.5 264.5t-109.5 264.5t-263.5 109.5q-155 0 -264.5 -109.5t-109.5 -264.5
t109.5 -264.5t264.5 -109.5z" />
    <glyph glyph-name="Cacute" unicode="&#x106;" horiz-adv-x="1684" 
d="M850 1669l225 379h185l-303 -379h-107zM914 -20q-160 0 -306 62.5t-252 168t-168.5 251.5t-62.5 306t62.5 306t168.5 251.5t252 168t306 62.5q217 0 399.5 -108.5t286.5 -290.5l-141 -79q-80 144 -225.5 229.5t-319.5 85.5q-170 0 -314 -83t-227.5 -227t-83.5 -315
t83.5 -315t227.5 -227t314 -83q174 0 319.5 85.5t225.5 229.5l141 -79q-104 -182 -286.5 -290.5t-399.5 -108.5z" />
    <glyph glyph-name="cacute" unicode="&#x107;" horiz-adv-x="1221" 
d="M594 1165l225 379h185l-303 -379h-107zM648 -20q-145 0 -267.5 71t-194 193.5t-71.5 267.5t71.5 267.5t194 193.5t267.5 71q177 0 316 -102.5t191 -265.5h-169q-46 95 -137 152.5t-201 57.5q-156 0 -265 -108.5t-109 -265.5t109 -265.5t265 -108.5q110 0 201 57.5
t137 152.5h169q-52 -163 -191 -265.5t-316 -102.5z" />
    <glyph glyph-name="Cdotaccent" unicode="&#x10a;" horiz-adv-x="1684" 
d="M914 1690q-45 0 -77.5 32.5t-32.5 77.5t32.5 77.5t77.5 32.5t77.5 -32.5t32.5 -77.5t-32.5 -77.5t-77.5 -32.5zM914 -20q-160 0 -306 62.5t-252 168t-168.5 251.5t-62.5 306t62.5 306t168.5 251.5t252 168t306 62.5q217 0 399.5 -108.5t286.5 -290.5l-141 -79
q-80 144 -225.5 229.5t-319.5 85.5q-170 0 -314 -83t-227.5 -227t-83.5 -315t83.5 -315t227.5 -227t314 -83q174 0 319.5 85.5t225.5 229.5l141 -79q-104 -182 -286.5 -290.5t-399.5 -108.5z" />
    <glyph glyph-name="cdotaccent" unicode="&#x10b;" horiz-adv-x="1221" 
d="M658 1185q-45 0 -77.5 32.5t-32.5 77.5t32.5 77.5t77.5 32.5t77.5 -32.5t32.5 -77.5t-32.5 -77.5t-77.5 -32.5zM648 -20q-145 0 -267.5 71t-194 193.5t-71.5 267.5t71.5 267.5t194 193.5t267.5 71q177 0 316 -102.5t191 -265.5h-169q-46 95 -137 152.5t-201 57.5
q-156 0 -265 -108.5t-109 -265.5t109 -265.5t265 -108.5q110 0 201 57.5t137 152.5h169q-52 -163 -191 -265.5t-316 -102.5z" />
    <glyph glyph-name="Ccaron" unicode="&#x10c;" horiz-adv-x="1684" 
d="M832 1669l-200 379h123l159 -271l159 271h125l-202 -379h-164zM914 -20q-160 0 -306 62.5t-252 168t-168.5 251.5t-62.5 306t62.5 306t168.5 251.5t252 168t306 62.5q217 0 399.5 -108.5t286.5 -290.5l-141 -79q-80 144 -225.5 229.5t-319.5 85.5q-170 0 -314 -83
t-227.5 -227t-83.5 -315t83.5 -315t227.5 -227t314 -83q174 0 319.5 85.5t225.5 229.5l141 -79q-104 -182 -286.5 -290.5t-399.5 -108.5z" />
    <glyph glyph-name="ccaron" unicode="&#x10d;" horiz-adv-x="1221" 
d="M576 1165l-200 379h123l159 -272l159 272h125l-202 -379h-164zM648 -20q-145 0 -267.5 71t-194 193.5t-71.5 267.5t71.5 267.5t194 193.5t267.5 71q177 0 316 -102.5t191 -265.5h-169q-46 95 -137 152.5t-201 57.5q-156 0 -265 -108.5t-109 -265.5t109 -265.5t265 -108.5
q110 0 201 57.5t137 152.5h169q-52 -163 -191 -265.5t-316 -102.5z" />
    <glyph glyph-name="Dcaron" unicode="&#x10e;" horiz-adv-x="1500" 
d="M522 1669l-199 379h122l159 -271l159 271h125l-202 -379h-164zM187 0v1536h420q156 0 298 -60.5t245 -163.5t164 -245.5t61 -298.5t-61 -298.5t-164 -245.5t-245 -163.5t-298 -60.5h-420zM348 164h256q168 0 307 78t219.5 217t80.5 309t-80.5 309t-219.5 217t-307 78
h-256v-1208z" />
    <glyph glyph-name="dcaron" unicode="&#x10f;" horiz-adv-x="1633" 
d="M1021 891v993h159v-1884h-159v133q-156 -153 -373 -153q-145 0 -267.5 71t-194 193.5t-71.5 267.5t71.5 267.5t194 193.5t267.5 71q217 0 373 -153zM1469 1884h182l-233 -617h-115zM648 138q154 0 263.5 109.5t109.5 264.5t-109.5 264.5t-263.5 109.5
q-155 0 -264.5 -109.5t-109.5 -264.5t109.5 -264.5t264.5 -109.5z" />
    <glyph glyph-name="Dcroat" unicode="&#x110;" horiz-adv-x="1500" 
d="M607 1536q156 0 298 -60.5t245 -163.5t164 -245.5t61 -298.5t-61 -298.5t-164 -245.5t-245 -163.5t-298 -60.5h-420v694h-159v153h159v689h420zM604 164q168 0 307 78t219.5 217t80.5 309t-80.5 309t-219.5 217t-307 78h-256v-525h274v-153h-274v-530h256z" />
    <glyph glyph-name="dcroat" unicode="&#x111;" horiz-adv-x="1367" 
d="M1318 1492v-153h-138v-1339h-159v133q-156 -153 -373 -153q-145 0 -267.5 71t-194 193.5t-71.5 267.5t71.5 267.5t194 193.5t267.5 71q217 0 373 -153v448h-297v153h297v392h159v-392h138zM648 138q154 0 263.5 109.5t109.5 264.5t-109.5 264.5t-263.5 109.5
q-155 0 -264.5 -109.5t-109.5 -264.5t109.5 -264.5t264.5 -109.5z" />
    <glyph glyph-name="Emacron" unicode="&#x112;" horiz-adv-x="1192" 
d="M893 1856v-108h-550v108h550zM1039 1377h-675v-530h588v-158h-588v-530h675v-159h-839v1536h839v-159z" />
    <glyph glyph-name="emacron" unicode="&#x113;" horiz-adv-x="1285" 
d="M932 1354v-107h-551v107h551zM1180 522l-2 -33h-904q8 -148 115.5 -249.5t258.5 -101.5q115 0 208 61t135 162h169q-51 -167 -191.5 -274t-320.5 -107q-145 0 -267.5 71t-194 193.5t-71.5 267.5t71.5 267.5t194 193.5t267.5 71q144 0 264.5 -68.5t192 -188.5t75.5 -265z
M648 886q-121 0 -218 -70.5t-136 -183.5h704q-37 113 -133 183.5t-217 70.5z" />
    <glyph glyph-name="Edotaccent" unicode="&#x116;" horiz-adv-x="1192" 
d="M620 1690q-45 0 -78 32.5t-33 77.5t33 77.5t78 32.5t77.5 -32.5t32.5 -77.5t-32.5 -77.5t-77.5 -32.5zM1039 1377h-675v-530h588v-158h-588v-530h675v-159h-839v1536h839v-159z" />
    <glyph glyph-name="edotaccent" unicode="&#x117;" horiz-adv-x="1285" 
d="M658 1188q-45 0 -77.5 32.5t-32.5 77.5t32.5 77.5t77.5 32.5t77.5 -32.5t32.5 -77.5t-32.5 -77.5t-77.5 -32.5zM1180 522l-2 -33h-904q8 -148 115.5 -249.5t258.5 -101.5q115 0 208 61t135 162h169q-51 -167 -191.5 -274t-320.5 -107q-145 0 -267.5 71t-194 193.5
t-71.5 267.5t71.5 267.5t194 193.5t267.5 71q144 0 264.5 -68.5t192 -188.5t75.5 -265zM648 886q-121 0 -218 -70.5t-136 -183.5h704q-37 113 -133 183.5t-217 70.5z" />
    <glyph glyph-name="Eogonek" unicode="&#x118;" horiz-adv-x="1192" 
d="M1111 -348l56 -80q-114 -110 -271 -102q-105 4 -166.5 60t-61.5 153q0 92 62 166.5t179 150.5h-709v1536h839v-159h-675v-530h588v-158h-588v-530h675v-159q-59 -35 -99 -62.5t-79.5 -65.5t-59.5 -82t-20 -95q0 -61 36 -99.5t102 -38.5q120 0 192 95z" />
    <glyph glyph-name="eogonek" unicode="&#x119;" horiz-adv-x="1285" 
d="M1180 522l-2 -33h-904q8 -148 115.5 -249.5t258.5 -101.5q115 0 208 61t135 162h169q-37 -118 -119.5 -208.5t-195.5 -134.5q-97 -62 -149.5 -125t-52.5 -146q0 -61 36.5 -100t101.5 -39q120 0 192 95l56 -79q-115 -111 -271 -103q-105 4 -166.5 60t-61.5 153
q0 130 141 246h-23q-145 0 -267.5 71t-194 193.5t-71.5 267.5t71.5 267.5t194 193.5t267.5 71q144 0 264.5 -68.5t192 -188.5t75.5 -265zM648 886q-121 0 -218 -70.5t-136 -183.5h704q-37 113 -133 183.5t-217 70.5z" />
    <glyph glyph-name="Ecaron" unicode="&#x11a;" horiz-adv-x="1192" 
d="M701 1669h-163l-200 379h123l159 -271l158 271h126zM1039 1377h-675v-530h588v-158h-588v-530h675v-159h-839v1536h839v-159z" />
    <glyph glyph-name="ecaron" unicode="&#x11b;" horiz-adv-x="1285" 
d="M740 1167h-164l-200 379h123l159 -271l159 271h125zM1180 522l-2 -33h-904q8 -148 115.5 -249.5t258.5 -101.5q115 0 208 61t135 162h169q-51 -167 -191.5 -274t-320.5 -107q-145 0 -267.5 71t-194 193.5t-71.5 267.5t71.5 267.5t194 193.5t267.5 71q144 0 264.5 -68.5
t192 -188.5t75.5 -265zM648 886q-121 0 -218 -70.5t-136 -183.5h704q-37 113 -133 183.5t-217 70.5z" />
    <glyph glyph-name="Gbreve" unicode="&#x11e;" horiz-adv-x="1840" 
d="M919 1672q-146 0 -240.5 86t-94.5 226h100q0 -87 67 -148.5t168 -61.5q102 0 170 61.5t68 148.5h100q0 -140 -95 -226t-243 -86zM919 814h791v-46q0 -160 -62.5 -306t-168 -251.5t-251.5 -168t-306 -62.5q-161 0 -307.5 62.5t-252 168t-167.5 251.5t-62 306t62 306
t167.5 251.5t252 168t307.5 62.5q217 0 399.5 -108.5t283.5 -290.5l-141 -79q-80 144 -225 229.5t-317 85.5q-170 0 -314 -83t-227.5 -227t-83.5 -315t83.5 -315t227.5 -227t314 -83q231 0 404 146.5t210 370.5h-617v154z" />
    <glyph glyph-name="gbreve" unicode="&#x11f;" horiz-adv-x="1367" 
d="M645 1160q-146 0 -240.5 86t-94.5 226h100q0 -87 67 -148.5t168 -61.5q102 0 170 61.5t68 148.5h100q0 -140 -95 -226t-243 -86zM1019 1024h161v-1114q0 -220 -156 -376t-376 -156q-171 0 -308.5 98t-193.5 255l146 64q37 -113 135 -185.5t221 -72.5q154 0 263.5 109.5
t109.5 263.5v223q-156 -153 -373 -153q-145 0 -267.5 71t-194 193.5t-71.5 267.5q0 146 71.5 268.5t194 193t267.5 70.5q106 0 202.5 -39t168.5 -109v128zM648 138q154 0 263.5 110t109.5 264q0 155 -109.5 264.5t-263.5 109.5q-155 0 -264.5 -109.5t-109.5 -264.5
q0 -154 109.5 -264t264.5 -110z" />
    <glyph glyph-name="Gdotaccent" unicode="&#x120;" horiz-adv-x="1840" 
d="M922 1690q-45 0 -77.5 32.5t-32.5 77.5t32.5 77.5t77.5 32.5t77.5 -32.5t32.5 -77.5t-32.5 -77.5t-77.5 -32.5zM919 814h791v-46q0 -160 -62.5 -306t-168 -251.5t-251.5 -168t-306 -62.5q-161 0 -307.5 62.5t-252 168t-167.5 251.5t-62 306t62 306t167.5 251.5t252 168
t307.5 62.5q217 0 399.5 -108.5t283.5 -290.5l-141 -79q-80 144 -225 229.5t-317 85.5q-170 0 -314 -83t-227.5 -227t-83.5 -315t83.5 -315t227.5 -227t314 -83q231 0 404 146.5t210 370.5h-617v154z" />
    <glyph glyph-name="gdotaccent" unicode="&#x121;" horiz-adv-x="1367" 
d="M648 1178q-45 0 -77.5 32.5t-32.5 77.5t32.5 77.5t77.5 32.5t77.5 -32.5t32.5 -77.5t-32.5 -77.5t-77.5 -32.5zM1019 1024h161v-1114q0 -220 -156 -376t-376 -156q-171 0 -308.5 98t-193.5 255l146 64q37 -113 135 -185.5t221 -72.5q154 0 263.5 109.5t109.5 263.5v223
q-156 -153 -373 -153q-145 0 -267.5 71t-194 193.5t-71.5 267.5q0 146 71.5 268.5t194 193t267.5 70.5q106 0 202.5 -39t168.5 -109v128zM648 138q154 0 263.5 110t109.5 264q0 155 -109.5 264.5t-263.5 109.5q-155 0 -264.5 -109.5t-109.5 -264.5q0 -154 109.5 -264
t264.5 -110z" />
    <glyph glyph-name="Gcommaaccent" unicode="&#x122;" horiz-adv-x="1840" 
d="M919 814h791v-46q0 -160 -62.5 -306t-168 -251.5t-251.5 -168t-306 -62.5q-161 0 -307.5 62.5t-252 168t-167.5 251.5t-62 306t62 306t167.5 251.5t252 168t307.5 62.5q217 0 399.5 -108.5t283.5 -290.5l-141 -79q-80 144 -225 229.5t-317 85.5q-170 0 -314 -83
t-227.5 -227t-83.5 -315t83.5 -315t227.5 -227t314 -83q231 0 404 146.5t210 370.5h-617v154zM668 -484l154 361h199l-240 -361h-113z" />
    <glyph glyph-name="gcommaaccent" unicode="&#x123;" horiz-adv-x="1367" 
d="M893 1526l-153 -361h-200l241 361h112zM1019 1024h161v-1114q0 -220 -156 -376t-376 -156q-171 0 -308.5 98t-193.5 255l146 64q37 -113 135 -185.5t221 -72.5q154 0 263.5 109.5t109.5 263.5v223q-156 -153 -373 -153q-145 0 -267.5 71t-194 193.5t-71.5 267.5
q0 146 71.5 268.5t194 193t267.5 70.5q106 0 202.5 -39t168.5 -109v128zM648 138q154 0 263.5 110t109.5 264q0 155 -109.5 264.5t-263.5 109.5q-155 0 -264.5 -109.5t-109.5 -264.5q0 -154 109.5 -264t264.5 -110z" />
    <glyph glyph-name="Hbar" unicode="&#x126;" horiz-adv-x="1548" 
d="M1503 1254v-112h-141v-1142h-164v686h-847v-686h-164v1142h-143v112h143v282h164v-282h847v282h164v-282h141zM1198 850v292h-847v-292h847z" />
    <glyph glyph-name="hbar" unicode="&#x127;" horiz-adv-x="1134" 
d="M573 1044q162 0 274.5 -113t112.5 -276v-655h-156v655q0 97 -68 164t-163 67q-94 0 -160.5 -66.5t-66.5 -164.5v-655h-159v1354h-141v154h141v376h159v-376h294v-154h-294v-384q103 74 227 74z" />
    <glyph glyph-name="Imacron" unicode="&#x12a;" horiz-adv-x="560" 
d="M5 1748v108h551v-108h-551zM200 0v1536h164v-1536h-164z" />
    <glyph glyph-name="imacron" unicode="&#x12b;" horiz-adv-x="560" 
d="M5 1236v108h551v-108h-551zM202 0v1024h159v-1024h-159z" />
    <glyph glyph-name="Iogonek" unicode="&#x12e;" horiz-adv-x="560" 
d="M435 -348l57 -80q-114 -110 -272 -102q-105 4 -166.5 60t-61.5 153q0 92 62 166.5t179 150.5h-33v1536h164v-1536q-60 -35 -99.5 -62.5t-79.5 -65.5t-60 -82t-20 -95q0 -61 36 -99.5t102 -38.5q120 0 192 95z" />
    <glyph glyph-name="iogonek" unicode="&#x12f;" horiz-adv-x="560" 
d="M282 1178q-45 0 -77.5 32.5t-32.5 77.5t32.5 77.5t77.5 32.5t77.5 -32.5t32.5 -77.5t-32.5 -77.5t-77.5 -32.5zM417 -348l57 -80q-114 -110 -272 -102q-105 4 -166.5 60t-61.5 153q0 92 62 166.5t179 150.5h-13v1024h159v-1024h-15q-60 -35 -99.5 -62.5t-79.5 -65.5
t-60 -82t-20 -95q0 -61 36 -99.5t102 -38.5q120 0 192 95z" />
    <glyph glyph-name="Idotaccent" unicode="&#x130;" horiz-adv-x="560" 
d="M282 1690q-45 0 -77.5 32.5t-32.5 77.5t32.5 77.5t77.5 32.5t77.5 -32.5t32.5 -77.5t-32.5 -77.5t-77.5 -32.5zM200 0v1536h164v-1536h-164z" />
    <glyph glyph-name="dotlessi" unicode="&#x131;" horiz-adv-x="560" 
d="M202 0v1024h159v-1024h-159z" />
    <glyph glyph-name="Kcommaaccent" unicode="&#x136;" horiz-adv-x="1313" 
d="M602 827l729 -827h-228l-642 753h-110v-753h-164v1536h164v-630h107l617 630h228zM407 -484l154 361h199l-240 -361h-113z" />
    <glyph glyph-name="kcommaaccent" unicode="&#x137;" horiz-adv-x="1057" 
d="M563 568l520 -568h-218l-504 571v-571h-159v1884h159v-1308l466 448h212zM302 -484l154 361h199l-240 -361h-113z" />
    <glyph glyph-name="Lacute" unicode="&#x139;" horiz-adv-x="944" 
d="M614 2048l-302 -379h-107l225 379h184zM351 164h571v-164h-735v1536h164v-1372z" />
    <glyph glyph-name="lacute" unicode="&#x13a;" horiz-adv-x="532" 
d="M202 2017l226 379h184l-302 -379h-108zM187 0v1884h159v-1884h-159z" />
    <glyph glyph-name="Lcommaaccent" unicode="&#x13b;" horiz-adv-x="944" 
d="M351 164h571v-164h-735v1536h164v-1372zM302 -484l154 361h199l-240 -361h-113z" />
    <glyph glyph-name="lcommaaccent" unicode="&#x13c;" horiz-adv-x="532" 
d="M187 0v1884h159v-1884h-159zM125 -484h-112l153 361h200z" />
    <glyph glyph-name="Lcaron" unicode="&#x13d;" horiz-adv-x="944" 
d="M351 164h571v-164h-735v1536h164v-1372zM906 1536l-233 -617h-115l166 617h182z" />
    <glyph glyph-name="lcaron" unicode="&#x13e;" horiz-adv-x="785" 
d="M187 0v1884h159v-1884h-159zM568 1267h-115l167 617h181z" />
    <glyph glyph-name="ldot" unicode="&#x140;" horiz-adv-x="532" 
d="M187 0v1884h159v-1884h-159zM530 648q-37 0 -63.5 25.5t-26.5 63.5q0 37 26.5 63.5t63.5 26.5t64.5 -26.5t27.5 -63.5q0 -38 -27.5 -63.5t-64.5 -25.5z" />
    <glyph glyph-name="Lslash" unicode="&#x141;" horiz-adv-x="944" 
d="M351 164h571v-164h-735v594l-146 -154l-87 75l233 248v773h164v-599l148 159l90 -75l-238 -253v-604z" />
    <glyph glyph-name="lslash" unicode="&#x142;" horiz-adv-x="532" 
d="M584 1193l-238 -253v-940h-159v773l-151 -161l-87 74l238 254v944h159v-776l148 159z" />
    <glyph glyph-name="Nacute" unicode="&#x143;" horiz-adv-x="1638" 
d="M1160 2048l-302 -379h-108l225 379h185zM1290 1536h162v-1536h-154l-947 1262v-1262h-164v1536h153l950 -1262v1262z" />
    <glyph glyph-name="nacute" unicode="&#x144;" horiz-adv-x="1146" 
d="M927 1536l-302 -379h-108l225 379h185zM594 1044q150 0 264.5 -115t114.5 -276v-653h-159v653q0 98 -67.5 165.5t-165.5 67.5t-166.5 -67.5t-68.5 -165.5v-653h-159v1024h159v-82q107 102 248 102z" />
    <glyph glyph-name="Ncommaaccent" unicode="&#x145;" horiz-adv-x="1638" 
d="M1290 1536h162v-1536h-154l-947 1262v-1262h-164v1536h153l950 -1262v1262zM573 -484l154 361h200l-241 -361h-113z" />
    <glyph glyph-name="ncommaaccent" unicode="&#x146;" horiz-adv-x="1146" 
d="M594 1044q150 0 264.5 -115t114.5 -276v-653h-159v653q0 98 -67.5 165.5t-165.5 67.5t-166.5 -67.5t-68.5 -165.5v-653h-159v1024h159v-82q107 102 248 102zM330 -484l154 361h200l-241 -361h-113z" />
    <glyph glyph-name="Ncaron" unicode="&#x147;" horiz-adv-x="1638" 
d="M896 1669h-164l-200 379h123l159 -271l159 271h125zM1290 1536h162v-1536h-154l-947 1262v-1262h-164v1536h153l950 -1262v1262z" />
    <glyph glyph-name="ncaron" unicode="&#x148;" horiz-adv-x="1146" 
d="M663 1157h-164l-199 379h122l159 -271l159 271h125zM594 1044q150 0 264.5 -115t114.5 -276v-653h-159v653q0 98 -67.5 165.5t-165.5 67.5t-166.5 -67.5t-68.5 -165.5v-653h-159v1024h159v-82q107 102 248 102z" />
    <glyph glyph-name="Eng" unicode="&#x14a;" horiz-adv-x="1638" 
d="M1290 1536h162v-1536v-225q0 -158 -68 -222t-219 -62v145q62 -3 97.5 29.5t35.5 122.5v212l-947 1262v-1262h-164v1536h153l950 -1262v1262z" />
    <glyph glyph-name="eng" unicode="&#x14b;" horiz-adv-x="1146" 
d="M594 1044q150 0 264.5 -115t114.5 -276v-653v-266q0 -156 -69 -221t-220 -63v107q62 -3 96 28.5t34 122.5v295v650q0 98 -67.5 165.5t-165.5 67.5t-166.5 -67.5t-68.5 -165.5v-653h-159v1024h159v-82q107 102 248 102z" />
    <glyph glyph-name="Omacron" unicode="&#x14c;" horiz-adv-x="1830" 
d="M637 1748v108h551v-108h-551zM914 -20q-160 0 -306 62.5t-252 168t-168.5 251.5t-62.5 306t62.5 306t168.5 251.5t252 168t306 62.5q161 0 307.5 -62.5t251.5 -168t167 -251.5t62 -306t-62 -306t-167 -251.5t-251.5 -168t-307.5 -62.5zM914 143q128 0 244 49t199.5 132.5
t132.5 199.5t49 244t-49 244t-132.5 199.5t-199.5 132.5t-244 49q-170 0 -314 -83t-227.5 -227t-83.5 -315t83.5 -315t227.5 -227t314 -83z" />
    <glyph glyph-name="omacron" unicode="&#x14d;" horiz-adv-x="1295" 
d="M371 1236v108h551v-108h-551zM648 -20q-145 0 -267.5 71t-194 193.5t-71.5 267.5t71.5 267.5t194 193.5t267.5 71q220 0 376 -156t156 -376t-156 -376t-376 -156zM648 138q154 0 263.5 109.5t109.5 264.5t-109.5 264.5t-263.5 109.5q-155 0 -264.5 -109.5t-109.5 -264.5
t109.5 -264.5t264.5 -109.5z" />
    <glyph glyph-name="Ohungarumlaut" unicode="&#x150;" horiz-adv-x="1830" 
d="M678 1669l223 379h184l-299 -379h-108zM1011 1669l223 379h184l-299 -379h-108zM914 -20q-160 0 -306 62.5t-252 168t-168.5 251.5t-62.5 306t62.5 306t168.5 251.5t252 168t306 62.5q161 0 307.5 -62.5t251.5 -168t167 -251.5t62 -306t-62 -306t-167 -251.5t-251.5 -168
t-307.5 -62.5zM914 143q128 0 244 49t199.5 132.5t132.5 199.5t49 244t-49 244t-132.5 199.5t-199.5 132.5t-244 49q-170 0 -314 -83t-227.5 -227t-83.5 -315t83.5 -315t227.5 -227t314 -83z" />
    <glyph glyph-name="ohungarumlaut" unicode="&#x151;" horiz-adv-x="1295" 
d="M412 1157l223 379h184l-299 -379h-108zM745 1157l223 379h184l-300 -379h-107zM648 -20q-145 0 -267.5 71t-194 193.5t-71.5 267.5t71.5 267.5t194 193.5t267.5 71q220 0 376 -156t156 -376t-156 -376t-376 -156zM648 138q154 0 263.5 109.5t109.5 264.5t-109.5 264.5
t-263.5 109.5q-155 0 -264.5 -109.5t-109.5 -264.5t109.5 -264.5t264.5 -109.5z" />
    <glyph glyph-name="OE" unicode="&#x152;" horiz-adv-x="2142" 
d="M1989 1377h-678v-530h591v-158h-591v-530h678v-159h-814v23q-126 -43 -261 -43q-160 0 -306 62.5t-252 168t-168.5 251.5t-62.5 306t62.5 306t168.5 251.5t252 168t306 62.5q135 0 261 -43v23h814v-159zM916 138q130 0 259 54v1152q-129 54 -259 54q-173 0 -318.5 -84.5
t-229.5 -229.5t-84 -316t84 -316t229.5 -229.5t318.5 -84.5z" />
    <glyph glyph-name="oe" unicode="&#x153;" horiz-adv-x="2196" 
d="M2092 522l-3 -33h-904q8 -148 115.5 -249.5t258.5 -101.5q115 0 208 61t135 162h169q-51 -167 -191.5 -274t-320.5 -107q-144 0 -265 69.5t-191 186.5q-70 -118 -190.5 -187t-264.5 -69q-145 0 -267.5 71t-194 193.5t-71.5 267.5t71.5 267.5t194 193.5t267.5 71
q144 0 264.5 -69t190.5 -187q70 117 191 186.5t265 69.5q219 0 373 -151t160 -371zM648 138q154 0 263.5 109.5t109.5 264.5t-109.5 264.5t-263.5 109.5q-155 0 -264.5 -109.5t-109.5 -264.5t109.5 -264.5t264.5 -109.5zM1559 886q-121 0 -217.5 -70.5t-135.5 -183.5h704
q-37 112 -133 183t-218 71z" />
    <glyph glyph-name="Racute" unicode="&#x154;" horiz-adv-x="1285" 
d="M988 2048l-302 -379h-107l225 379h184zM809 701l453 -701h-187l-435 694h-289v-694h-164v1536h550q178 0 303 -125t125 -305q0 -154 -102 -269t-254 -136zM351 850h376q118 0 196 72.5t78 188.5q0 114 -78.5 187.5t-195.5 73.5h-376v-522z" />
    <glyph glyph-name="racute" unicode="&#x155;" horiz-adv-x="778" 
d="M801 1536l-302 -379h-107l225 379h184zM346 878q59 79 146 122.5t194 43.5q47 0 79 -7v-161q-29 10 -79 10q-141 0 -240.5 -95.5t-99.5 -234.5v-556h-159v1024h159v-146z" />
    <glyph glyph-name="Rcommaaccent" unicode="&#x156;" horiz-adv-x="1285" 
d="M809 701l453 -701h-187l-435 694h-289v-694h-164v1536h550q178 0 303 -125t125 -305q0 -154 -102 -269t-254 -136zM351 850h376q118 0 196 72.5t78 188.5q0 114 -78.5 187.5t-195.5 73.5h-376v-522zM389 -484l154 361h199l-240 -361h-113z" />
    <glyph glyph-name="rcommaaccent" unicode="&#x157;" horiz-adv-x="778" 
d="M686 1044q47 0 79 -7v-161q-29 10 -79 10q-141 0 -240.5 -95.5t-99.5 -234.5v-556h-159v1024h159v-146q59 79 146 122.5t194 43.5zM13 -484l153 361h200l-241 -361h-112z" />
    <glyph glyph-name="Rcaron" unicode="&#x158;" horiz-adv-x="1285" 
d="M724 1669h-163l-200 379h123l159 -271l158 271h126zM809 701l453 -701h-187l-435 694h-289v-694h-164v1536h550q178 0 303 -125t125 -305q0 -154 -102 -269t-254 -136zM351 850h376q118 0 196 72.5t78 188.5q0 114 -78.5 187.5t-195.5 73.5h-376v-522z" />
    <glyph glyph-name="rcaron" unicode="&#x159;" horiz-adv-x="778" 
d="M538 1157h-164l-200 379h123l159 -271l158 271h126zM686 1044q47 0 79 -7v-161q-29 10 -79 10q-141 0 -240.5 -95.5t-99.5 -234.5v-556h-159v1024h159v-146q59 79 146 122.5t194 43.5z" />
    <glyph glyph-name="Sacute" unicode="&#x15a;" horiz-adv-x="1121" 
d="M507 1669l225 379h184l-302 -379h-107zM573 -20q-170 0 -304.5 85t-194.5 227l149 87q42 -109 134 -172.5t219 -63.5q134 0 220.5 68.5t86.5 187.5q0 61 -25.5 109.5t-69 82.5t-99.5 62.5t-118 54t-123.5 52.5t-117.5 62.5t-99.5 79t-69 107.5t-25.5 143
q0 183 122.5 293.5t304.5 110.5q127 0 235.5 -53.5t174.5 -138.5l-128 -107q-46 65 -117.5 100.5t-159.5 35.5q-114 0 -191 -59t-77 -169q0 -58 25.5 -105t69 -79t99.5 -59.5t118 -53t123.5 -52.5t117.5 -64t99.5 -83t69 -114t25.5 -151q0 -131 -64.5 -228.5t-171 -146.5
t-238.5 -49z" />
    <glyph glyph-name="sacute" unicode="&#x15b;" horiz-adv-x="847" 
d="M381 1157l226 379h184l-302 -379h-108zM440 -20q-122 0 -224.5 64.5t-131.5 157.5l154 62q11 -55 70.5 -91.5t131.5 -36.5t120.5 37.5t48.5 102.5q0 57 -42.5 89.5t-146.5 74.5q-146 55 -217.5 126.5t-71.5 186.5q0 90 43.5 157.5t110 100.5t143.5 33q97 0 183.5 -49
t115.5 -119l-138 -72q-21 40 -62 61t-92 21q-65 0 -104 -32.5t-39 -95.5q0 -27 9 -48t20.5 -35.5t40 -31t50.5 -27t69 -30.5q49 -20 82 -35.5t75.5 -43.5t68 -58t43.5 -75t18 -98q0 -130 -95.5 -213t-232.5 -83z" />
    <glyph glyph-name="Scedilla" unicode="&#x15e;" horiz-adv-x="1121" 
d="M1047 404q0 -97 -35.5 -176.5t-97.5 -132t-145 -82.5t-178 -33l-56 -116q105 21 179 -33.5t74 -150.5q0 -89 -60 -150.5t-149 -61.5q-69 0 -138.5 39t-97.5 94l87 35q23 -31 67 -52.5t82 -21.5q48 0 81.5 34t33.5 84q0 69 -58.5 96t-143.5 -6l-77 51l82 164
q-146 17 -258.5 98.5t-164.5 208.5l149 87q42 -109 134 -172.5t219 -63.5q134 0 220.5 68.5t86.5 187.5q0 61 -25.5 109.5t-69 82.5t-99.5 62.5t-118 54t-123.5 52.5t-117.5 62.5t-99.5 79t-69 107.5t-25.5 143q0 183 122.5 293.5t304.5 110.5q127 0 235.5 -53.5
t174.5 -138.5l-128 -107q-46 65 -117.5 100.5t-159.5 35.5q-114 0 -191 -59t-77 -169q0 -58 25.5 -105t69 -79t99.5 -59.5t118 -53t123.5 -52.5t117.5 -64t99.5 -83t69 -114t25.5 -151z" />
    <glyph glyph-name="scedilla" unicode="&#x15f;" horiz-adv-x="847" 
d="M768 276q0 -120 -82.5 -201t-206.5 -93l-57 -118q105 21 179.5 -33.5t74.5 -150.5q0 -89 -60.5 -150.5t-149.5 -61.5q-69 0 -138.5 39t-97.5 94l87 35q23 -31 67 -52.5t82 -21.5q48 0 81.5 34t33.5 84q0 69 -58.5 96t-143.5 -6l-77 51l82 164q-106 14 -190.5 75
t-109.5 142l154 62q11 -55 70.5 -91.5t131.5 -36.5t120.5 37.5t48.5 102.5q0 57 -42.5 89.5t-146.5 74.5q-146 55 -217.5 126.5t-71.5 186.5q0 90 43.5 157.5t110 100.5t143.5 33q97 0 183.5 -49t115.5 -119l-138 -72q-21 40 -62 61t-92 21q-65 0 -104 -32.5t-39 -95.5
q0 -27 9 -48t20.5 -35.5t40 -31t50.5 -27t69 -30.5q49 -20 82 -35.5t75.5 -43.5t68 -58t43.5 -75t18 -98z" />
    <glyph glyph-name="Scaron" unicode="&#x160;" horiz-adv-x="1121" 
d="M489 1669l-200 379h123l159 -271l159 271h125l-202 -379h-164zM573 -20q-170 0 -304.5 85t-194.5 227l149 87q42 -109 134 -172.5t219 -63.5q134 0 220.5 68.5t86.5 187.5q0 61 -25.5 109.5t-69 82.5t-99.5 62.5t-118 54t-123.5 52.5t-117.5 62.5t-99.5 79t-69 107.5
t-25.5 143q0 183 122.5 293.5t304.5 110.5q127 0 235.5 -53.5t174.5 -138.5l-128 -107q-46 65 -117.5 100.5t-159.5 35.5q-114 0 -191 -59t-77 -169q0 -58 25.5 -105t69 -79t99.5 -59.5t118 -53t123.5 -52.5t117.5 -64t99.5 -83t69 -114t25.5 -151q0 -131 -64.5 -228.5
t-171 -146.5t-238.5 -49z" />
    <glyph glyph-name="scaron" unicode="&#x161;" horiz-adv-x="847" 
d="M364 1157l-200 379h123l158 -271l159 271h126l-203 -379h-163zM440 -20q-122 0 -224.5 64.5t-131.5 157.5l154 62q11 -55 70.5 -91.5t131.5 -36.5t120.5 37.5t48.5 102.5q0 57 -42.5 89.5t-146.5 74.5q-146 55 -217.5 126.5t-71.5 186.5q0 90 43.5 157.5t110 100.5
t143.5 33q97 0 183.5 -49t115.5 -119l-138 -72q-21 40 -62 61t-92 21q-65 0 -104 -32.5t-39 -95.5q0 -27 9 -48t20.5 -35.5t40 -31t50.5 -27t69 -30.5q49 -20 82 -35.5t75.5 -43.5t68 -58t43.5 -75t18 -98q0 -130 -95.5 -213t-232.5 -83z" />
    <glyph glyph-name="uni0162" unicode="&#x162;" horiz-adv-x="1059" 
d="M612 0h-33l-67 -136q105 21 179 -33.5t74 -150.5q0 -89 -60 -150.5t-149 -61.5q-69 0 -138.5 39t-97.5 94l87 35q23 -31 67 -52.5t82 -21.5q48 0 81.5 34t33.5 84q0 69 -59 96t-144 -6l-76 51l89 179h-33v1372h-425v164h1014v-164h-425v-1372z" />
    <glyph glyph-name="uni0163" unicode="&#x163;" horiz-adv-x="742" 
d="M502 -136q105 21 179 -33.5t74 -150.5q0 -89 -60.5 -150.5t-149.5 -61.5q-69 0 -138 39t-97 94l87 35q23 -31 66.5 -52.5t81.5 -21.5q48 0 81.5 34t33.5 84q0 69 -58.5 96t-143.5 -6l-77 51l82 164q-101 20 -169.5 100t-68.5 184v601h-171v154h171v445h159v-445h274v-154
h-274v-581q0 -69 45 -112.5t109 -43.5h117v-120q-36 -23 -94 -31z" />
    <glyph glyph-name="Tcaron" unicode="&#x164;" horiz-adv-x="1059" 
d="M612 1669h-164l-200 379h123l159 -271l159 271h125zM1037 1536v-164h-425v-1372h-164v1372h-425v164h1014z" />
    <glyph glyph-name="tcaron" unicode="&#x165;" horiz-adv-x="929" 
d="M760 1720h182l-233 -617h-115zM384 1469v-445h274v-154h-274v-581q0 -69 45 -112.5t109 -43.5h117v-120q-51 -33 -135 -33q-120 0 -207.5 84.5t-87.5 204.5v601h-171v154h171v445h159z" />
    <glyph glyph-name="Tbar" unicode="&#x166;" horiz-adv-x="1059" 
d="M1037 1372h-425v-525h212v-153h-212v-694h-164v694h-218v153h218v525h-425v164h1014v-164z" />
    <glyph glyph-name="tbar" unicode="&#x167;" horiz-adv-x="742" 
d="M658 870h-274v-279h261v-153h-261v-149q0 -69 45 -112.5t109 -43.5h117v-120q-51 -33 -135 -33q-120 0 -207.5 84.5t-87.5 204.5v169h-174v153h174v279h-171v154h171v445h159v-445h274v-154z" />
    <glyph glyph-name="Umacron" unicode="&#x16a;" horiz-adv-x="1512" 
d="M479 1748v108h550v-108h-550zM755 -20q-164 0 -296 67.5t-206 187.5t-74 269v1032h164v-1006q0 -167 117 -277t295 -110q179 0 297 110t118 277v1006h164v-1032q0 -149 -74.5 -269t-207 -187.5t-297.5 -67.5z" />
    <glyph glyph-name="umacron" unicode="&#x16b;" horiz-adv-x="1072" 
d="M266 1236v108h551v-108h-551zM538 -20q-173 0 -278.5 105.5t-105.5 283.5v655h156v-637q0 -114 64 -181.5t164 -67.5q101 0 164 67.5t63 181.5v637h157v-655q0 -177 -106 -283t-278 -106z" />
    <glyph glyph-name="Uring" unicode="&#x16e;" horiz-adv-x="1512" 
d="M755 1633q-88 0 -151.5 63t-63.5 150q0 88 63 150t152 62q87 0 148.5 -62t61.5 -150q0 -87 -62 -150t-148 -63zM755 1720q51 0 87 36.5t36 89.5q0 52 -36.5 90t-86.5 38q-53 0 -89 -37.5t-36 -90.5q0 -54 35.5 -90t89.5 -36zM755 -20q-164 0 -296 67.5t-206 187.5
t-74 269v1032h164v-1006q0 -167 117 -277t295 -110q179 0 297 110t118 277v1006h164v-1032q0 -149 -74.5 -269t-207 -187.5t-297.5 -67.5z" />
    <glyph glyph-name="uring" unicode="&#x16f;" horiz-adv-x="1072" 
d="M543 1121q-88 0 -151.5 63t-63.5 150q0 88 63 150t152 62q87 0 148.5 -62t61.5 -150q0 -87 -62 -150t-148 -63zM543 1208q51 0 87 36.5t36 89.5q0 52 -36.5 90t-86.5 38q-53 0 -89.5 -38t-36.5 -90q0 -54 36 -90t90 -36zM538 -20q-173 0 -278.5 105.5t-105.5 283.5v655
h156v-637q0 -114 64 -181.5t164 -67.5q101 0 164 67.5t63 181.5v637h157v-655q0 -177 -106 -283t-278 -106z" />
    <glyph glyph-name="Uhungarumlaut" unicode="&#x170;" horiz-adv-x="1512" 
d="M520 1669l222 379h185l-300 -379h-107zM852 1669l223 379h185l-300 -379h-108zM755 -20q-164 0 -296 67.5t-206 187.5t-74 269v1032h164v-1006q0 -167 117 -277t295 -110q179 0 297 110t118 277v1006h164v-1032q0 -149 -74.5 -269t-207 -187.5t-297.5 -67.5z" />
    <glyph glyph-name="uhungarumlaut" unicode="&#x171;" horiz-adv-x="1072" 
d="M307 1157l223 379h184l-299 -379h-108zM640 1157l223 379h184l-299 -379h-108zM538 -20q-173 0 -278.5 105.5t-105.5 283.5v655h156v-637q0 -114 64 -181.5t164 -67.5q101 0 164 67.5t63 181.5v637h157v-655q0 -177 -106 -283t-278 -106z" />
    <glyph glyph-name="Uogonek" unicode="&#x172;" horiz-adv-x="1512" 
d="M1170 1536h164v-1032q0 -166 -90.5 -293.5t-245.5 -187.5q-72 -43 -118 -79t-80.5 -91.5t-34.5 -118.5q0 -61 36.5 -99.5t102.5 -38.5q121 0 192 94l56 -79q-115 -111 -271 -103q-105 4 -166.5 60t-61.5 153q0 137 159 261q-12 -2 -57 -2q-164 0 -296 67.5t-206 187.5
t-74 269v1032h164v-1006q0 -167 117 -277t295 -110q179 0 297 110t118 277v1006z" />
    <glyph glyph-name="uogonek" unicode="&#x173;" horiz-adv-x="1072" 
d="M701 10q-82 -57 -126.5 -116t-44.5 -135q0 -61 36 -99.5t102 -38.5q120 0 192 95l56 -80q-114 -110 -271 -102q-105 4 -166.5 60t-61.5 153q0 123 126 233h-5q-173 0 -278.5 105.5t-105.5 283.5v655h156v-637q0 -114 64 -181.5t164 -67.5q101 0 164 67.5t63 181.5v637
h157v-655q0 -131 -58.5 -224.5t-162.5 -134.5z" />
    <glyph glyph-name="Wcircumflex" unicode="&#x174;" horiz-adv-x="2071" 
d="M1039 1943l-158 -274h-123l199 379h164l203 -379h-126zM1917 1536h169l-478 -1536h-172l-402 1362l-394 -1362h-174l-481 1536h174l391 -1260l369 1260h166h64l374 -1262z" />
    <glyph glyph-name="wcircumflex" unicode="&#x175;" horiz-adv-x="1643" 
d="M824 1431l-158 -274h-123l199 379h164l202 -379h-125zM1449 1024h171l-350 -1024h-174l-272 804l-274 -804h-174l-353 1024h179l266 -835l280 835h151l279 -840z" />
    <glyph glyph-name="Ycircumflex" unicode="&#x176;" horiz-adv-x="1241" 
d="M622 1943l-159 -274h-123l200 379h164l202 -379h-125zM1239 1536l-535 -806v-730h-164v727l-537 809h204l415 -637l415 637h202z" />
    <glyph glyph-name="ycircumflex" unicode="&#x177;" horiz-adv-x="1047" 
d="M525 1431l-159 -274h-123l200 379h164l202 -379h-125zM845 1024h179l-440 -1101l-218 -537h-169l246 606l-420 1032h177l327 -840z" />
    <glyph glyph-name="Ydieresis" unicode="&#x178;" horiz-adv-x="1241" 
d="M438 1728q-46 0 -79.5 32t-33.5 76q0 47 33 78.5t80 31.5q45 0 77.5 -31.5t32.5 -78.5q0 -44 -33 -76t-77 -32zM809 1728q-44 0 -77 32t-33 76q0 47 32.5 78.5t77.5 31.5q46 0 78 -31.5t32 -78.5q0 -44 -32 -76t-78 -32zM1239 1536l-535 -806v-730h-164v727l-537 809h204
l415 -637l415 637h202z" />
    <glyph glyph-name="Zacute" unicode="&#x179;" horiz-adv-x="1351" 
d="M1029 2048l-302 -379h-107l225 379h184zM387 164h870v-164h-1162l842 1372h-781v164h1070z" />
    <glyph glyph-name="zacute" unicode="&#x17a;" horiz-adv-x="1054" 
d="M893 1536l-302 -379h-107l225 379h184zM970 1024l-589 -865h589v-159h-886l589 865h-548v159h845z" />
    <glyph glyph-name="Zdotaccent" unicode="&#x17b;" horiz-adv-x="1351" 
d="M684 1690q-45 0 -78 32.5t-33 77.5t33 77.5t78 32.5t77.5 -32.5t32.5 -77.5t-32.5 -77.5t-77.5 -32.5zM387 164h870v-164h-1162l842 1372h-781v164h1070z" />
    <glyph glyph-name="zdotaccent" unicode="&#x17c;" horiz-adv-x="1054" 
d="M548 1178q-45 0 -77.5 32.5t-32.5 77.5t32.5 77.5t77.5 32.5t77.5 -32.5t32.5 -77.5t-32.5 -77.5t-77.5 -32.5zM970 1024l-589 -865h589v-159h-886l589 865h-548v159h845z" />
    <glyph glyph-name="Zcaron" unicode="&#x17d;" horiz-adv-x="1351" 
d="M765 1669h-163l-200 379h123l159 -271l158 271h126zM387 164h870v-164h-1162l842 1372h-781v164h1070z" />
    <glyph glyph-name="zcaron" unicode="&#x17e;" horiz-adv-x="1054" 
d="M630 1157h-164l-200 379h123l159 -271l159 271h125zM970 1024l-589 -865h589v-159h-886l589 865h-548v159h845z" />
    <glyph glyph-name="florin" unicode="&#x192;" horiz-adv-x="942" 
d="M748 1436q-78 0 -134.5 -51t-70.5 -133l-36 -228h287l-18 -123h-290l-222 -1413h-144l223 1413h-171l17 123h175l38 246q19 120 116 203t217 83q38 0 75.5 -10t54.5 -25l-15 -121q-36 36 -102 36z" />
    <glyph glyph-name="uni01CD" unicode="&#x1cd;" horiz-adv-x="1292" 
d="M730 1669h-164l-200 379h123l159 -271l158 271h126zM1114 0l-126 358h-683l-126 -358h-179l556 1536h181l556 -1536h-179zM358 515h576l-286 826z" />
    <glyph glyph-name="uni01CE" unicode="&#x1ce;" horiz-adv-x="1379" 
d="M730 1157h-164l-200 379h123l159 -271l158 271h126zM1285 133h64v-133q-31 -20 -77 -20q-88 0 -149 47.5t-86 128.5q-75 -82 -176 -129t-213 -47q-145 0 -267.5 71t-194 193.5t-71.5 267.5t71.5 267.5t194 193.5t267.5 71q108 0 204.5 -40.5t168.5 -112.5v133h159v-758
q0 -67 29.5 -100t75.5 -33zM648 138q154 0 263.5 109.5t109.5 264.5t-109.5 264.5t-263.5 109.5q-155 0 -264.5 -109.5t-109.5 -264.5t109.5 -264.5t264.5 -109.5z" />
    <glyph glyph-name="uni01CF" unicode="&#x1cf;" horiz-adv-x="560" 
d="M200 1669l-200 379h123l159 -271l158 271h126l-202 -379h-164zM200 0v1536h164v-1536h-164z" />
    <glyph glyph-name="uni01D0" unicode="&#x1d0;" horiz-adv-x="560" 
d="M200 1157l-200 379h123l159 -271l158 271h126l-202 -379h-164zM202 0v1024h159v-1024h-159z" />
    <glyph glyph-name="uni01D1" unicode="&#x1d1;" horiz-adv-x="1830" 
d="M832 1669l-200 379h123l159 -271l159 271h125l-202 -379h-164zM914 -20q-160 0 -306 62.5t-252 168t-168.5 251.5t-62.5 306t62.5 306t168.5 251.5t252 168t306 62.5q161 0 307.5 -62.5t251.5 -168t167 -251.5t62 -306t-62 -306t-167 -251.5t-251.5 -168t-307.5 -62.5z
M914 143q128 0 244 49t199.5 132.5t132.5 199.5t49 244t-49 244t-132.5 199.5t-199.5 132.5t-244 49q-170 0 -314 -83t-227.5 -227t-83.5 -315t83.5 -315t227.5 -227t314 -83z" />
    <glyph glyph-name="uni01D2" unicode="&#x1d2;" horiz-adv-x="1295" 
d="M566 1157l-200 379h123l159 -271l158 271h126l-202 -379h-164zM648 -20q-145 0 -267.5 71t-194 193.5t-71.5 267.5t71.5 267.5t194 193.5t267.5 71q220 0 376 -156t156 -376t-156 -376t-376 -156zM648 138q154 0 263.5 109.5t109.5 264.5t-109.5 264.5t-263.5 109.5
q-155 0 -264.5 -109.5t-109.5 -264.5t109.5 -264.5t264.5 -109.5z" />
    <glyph glyph-name="uni01D3" unicode="&#x1d3;" horiz-adv-x="1512" 
d="M673 1669l-199 379h122l159 -271l159 271h125l-202 -379h-164zM755 -20q-164 0 -296 67.5t-206 187.5t-74 269v1032h164v-1006q0 -167 117 -277t295 -110q179 0 297 110t118 277v1006h164v-1032q0 -149 -74.5 -269t-207 -187.5t-297.5 -67.5z" />
    <glyph glyph-name="uni01D4" unicode="&#x1d4;" horiz-adv-x="1072" 
d="M461 1157l-200 379h123l159 -271l158 271h126l-202 -379h-164zM538 -20q-173 0 -278.5 105.5t-105.5 283.5v655h156v-637q0 -114 64 -181.5t164 -67.5q101 0 164 67.5t63 181.5v637h157v-655q0 -177 -106 -283t-278 -106z" />
    <glyph glyph-name="Scommaaccent" unicode="&#x218;" horiz-adv-x="1121" 
d="M573 -20q-170 0 -304.5 85t-194.5 227l149 87q42 -109 134 -172.5t219 -63.5q134 0 220.5 68.5t86.5 187.5q0 61 -25.5 109.5t-69 82.5t-99.5 62.5t-118 54t-123.5 52.5t-117.5 62.5t-99.5 79t-69 107.5t-25.5 143q0 183 122.5 293.5t304.5 110.5q127 0 235.5 -53.5
t174.5 -138.5l-128 -107q-46 65 -117.5 100.5t-159.5 35.5q-114 0 -191 -59t-77 -169q0 -58 25.5 -105t69 -79t99.5 -59.5t118 -53t123.5 -52.5t117.5 -64t99.5 -83t69 -114t25.5 -151q0 -131 -64.5 -228.5t-171 -146.5t-238.5 -49zM412 -484h-112l153 361h200z" />
    <glyph glyph-name="scommaaccent" unicode="&#x219;" horiz-adv-x="847" 
d="M440 -20q-122 0 -224.5 64.5t-131.5 157.5l154 62q11 -55 70.5 -91.5t131.5 -36.5t120.5 37.5t48.5 102.5q0 57 -42.5 89.5t-146.5 74.5q-146 55 -217.5 126.5t-71.5 186.5q0 90 43.5 157.5t110 100.5t143.5 33q97 0 183.5 -49t115.5 -119l-138 -72q-21 40 -62 61t-92 21
q-65 0 -104 -32.5t-39 -95.5q0 -27 9 -48t20.5 -35.5t40 -31t50.5 -27t69 -30.5q49 -20 82 -35.5t75.5 -43.5t68 -58t43.5 -75t18 -98q0 -130 -95.5 -213t-232.5 -83zM300 -484h-113l153 361h200z" />
    <glyph glyph-name="uni021A" unicode="&#x21a;" horiz-adv-x="1059" 
d="M23 1536h1014v-164h-425v-1372h-164v1372h-425v164zM276 -484l154 361h200l-241 -361h-113z" />
    <glyph glyph-name="uni021B" unicode="&#x21b;" horiz-adv-x="742" 
d="M658 870h-274v-581q0 -69 45 -112.5t109 -43.5h117v-120q-51 -33 -135 -33q-120 0 -207.5 84.5t-87.5 204.5v601h-171v154h171v445h159v-445h274v-154zM266 -484l154 361h200l-241 -361h-113z" />
    <glyph glyph-name="uni0237" unicode="&#x237;" horiz-adv-x="535" 
d="M54 -614q-85 0 -133 33v123l115 -3q64 0 108.5 43.5t44.5 112.5v1329h159v-1349q0 -120 -86.5 -204.5t-207.5 -84.5z" />
    <glyph glyph-name="circumflex" unicode="&#x2c6;" horiz-adv-x="130" 
d="M241 1157h-123l199 379h164l203 -379h-126l-159 274z" />
    <glyph glyph-name="caron" unicode="&#x2c7;" horiz-adv-x="130" 
d="M317 1157l-199 379h123l158 -271l159 271h126l-203 -379h-164z" />
    <glyph glyph-name="breve" unicode="&#x2d8;" horiz-adv-x="135" 
d="M607 1160q-146 0 -241 86t-95 226h100q0 -87 67.5 -148.5t168.5 -61.5q102 0 170 61.5t68 148.5h100q0 -140 -95 -226t-243 -86z" />
    <glyph glyph-name="dotaccent" unicode="&#x2d9;" horiz-adv-x="130" 
d="M312 1178q-45 0 -77.5 32.5t-32.5 77.5t32.5 77.5t77.5 32.5t77.5 -32.5t32.5 -77.5t-32.5 -77.5t-77.5 -32.5z" />
    <glyph glyph-name="ring" unicode="&#x2da;" horiz-adv-x="133" 
d="M207 1121q-88 0 -151.5 63t-63.5 150q0 88 63 150t152 62q87 0 148.5 -62t61.5 -150q0 -87 -62 -150t-148 -63zM207 1208q51 0 87 36.5t36 89.5q0 52 -36.5 90t-86.5 38q-53 0 -89 -37.5t-36 -90.5q0 -54 35.5 -90t89.5 -36z" />
    <glyph glyph-name="ogonek" unicode="&#x2db;" horiz-adv-x="130" 
d="M338 -530q-105 4 -166.5 60t-61.5 153q0 102 73.5 181.5t213.5 163.5l84 -28q-59 -35 -99 -62.5t-79.5 -65.5t-59.5 -82t-20 -95q0 -61 36 -99.5t102 -38.5q120 0 192 95l56 -80q-114 -110 -271 -102z" />
    <glyph glyph-name="tilde" unicode="&#x2dc;" horiz-adv-x="140" 
d="M556 1257q-110 0 -187 113q-33 56 -85 56q-49 0 -75.5 -44.5t-26.5 -114.5h-118q0 120 58.5 198.5t156.5 78.5q62 0 105 -30t82 -83q40 -56 90 -56q99 0 99 158h118q0 -120 -57.5 -198t-159.5 -78z" />
    <glyph glyph-name="hungarumlaut" unicode="&#x2dd;" horiz-adv-x="130" 
d="M20 1157l226 379h184l-302 -379h-108z" />
    <glyph glyph-name="gravecomb" unicode="&#x300;" 
d="M-51 1157h-108l-302 379h185z" />
    <glyph glyph-name="acutecomb" unicode="&#x301;" 
d="M-502 1157l226 379h184l-302 -379h-108z" />
    <glyph glyph-name="uni0302" unicode="&#x302;" 
d="M-558 1157h-123l200 379h164l202 -379h-126l-158 274z" />
    <glyph glyph-name="tildecomb" unicode="&#x303;" 
d="M-284 1257q-110 0 -187 113q-33 56 -85 56q-49 0 -75.5 -44.5t-26.5 -114.5h-118q0 120 58.5 198.5t156.5 78.5q62 0 105 -30t82 -83q40 -56 90 -56q100 0 100 158h117q0 -120 -57.5 -198t-159.5 -78z" />
    <glyph glyph-name="uni0304" unicode="&#x304;" 
d="M-673 1236v108h550v-108h-550z" />
    <glyph glyph-name="uni0306" unicode="&#x306;" 
d="M-709 1160q-146 0 -240.5 86t-94.5 226h99q0 -87 67.5 -148.5t168.5 -61.5q102 0 170 61.5t68 148.5h100q0 -140 -95 -226t-243 -86z" />
    <glyph glyph-name="uni0307" unicode="&#x307;" 
d="M-312 1178q-45 0 -77.5 32.5t-32.5 77.5t32.5 77.5t77.5 32.5t77.5 -32.5t32.5 -77.5t-32.5 -77.5t-77.5 -32.5z" />
    <glyph glyph-name="uni0308" unicode="&#x308;" 
d="M-625 1216q-46 0 -79 32t-33 76q0 47 33 78.5t79 31.5q45 0 77.5 -31.5t32.5 -78.5q0 -44 -33 -76t-77 -32zM-253 1216q-45 0 -78 32t-33 76q0 47 33 78.5t78 31.5q46 0 78 -31.5t32 -78.5q0 -44 -32 -76t-78 -32z" />
    <glyph glyph-name="uni030A" unicode="&#x30a;" 
d="M-202 1121q-88 0 -151.5 63t-63.5 150q0 88 63 150t152 62q87 0 148.5 -62t61.5 -150q0 -87 -62 -150t-148 -63zM-202 1208q51 0 87 36.5t36 89.5q0 52 -36.5 90t-86.5 38q-53 0 -89.5 -38t-36.5 -90q0 -54 36 -90t90 -36z" />
    <glyph glyph-name="uni030B" unicode="&#x30b;" 
d="M-384 1157l223 379h184l-299 -379h-108zM-51 1157l223 379h184l-300 -379h-107z" />
    <glyph glyph-name="uni030C" unicode="&#x30c;" 
d="M-481 1157l-200 379h123l159 -271l158 271h126l-202 -379h-164z" />
    <glyph glyph-name="uni0312" unicode="&#x312;" 
d="M-156 1697h112l-153 -361h-200z" />
    <glyph glyph-name="dotbelowcomb" unicode="&#x323;" 
d="M-189 -512q-45 0 -78 32.5t-33 77.5q0 44 33.5 77t77.5 33t77 -33t33 -77q0 -45 -32.5 -77.5t-77.5 -32.5z" />
    <glyph glyph-name="uni0326" unicode="&#x326;" 
d="M-356 -259h-112l153 361h200z" />
    <glyph glyph-name="uni0327" unicode="&#x327;" 
d="M-289 -532q-69 0 -138.5 39t-97.5 94l87 35q23 -31 67 -52.5t82 -21.5q48 0 81.5 34t33.5 84q0 69 -58.5 96t-143.5 -6l-77 51l89 179h98l-67 -136q105 21 179.5 -33.5t74.5 -150.5q0 -89 -60.5 -150.5t-149.5 -61.5z" />
    <glyph glyph-name="uni0328" unicode="&#x328;" 
d="M-287 -530q-105 4 -166.5 60t-61.5 153q0 102 73.5 181.5t213.5 163.5l85 -28q-60 -35 -99.5 -62.5t-79.5 -65.5t-60 -82t-20 -95q0 -61 36 -99.5t102 -38.5q120 0 192 95l57 -80q-114 -110 -272 -102z" />
    <glyph glyph-name="uni0335" unicode="&#x335;" 
d="M-960 461v153h594v-153h-594z" />
    <glyph glyph-name="uni0336" unicode="&#x336;" 
d="M-1541 476v113h1459v-113h-1459z" />
    <glyph glyph-name="uni0337" unicode="&#x337;" 
d="M-940 266l546 581l89 -74l-547 -581z" />
    <glyph glyph-name="uni0338" unicode="&#x338;" 
d="M-1272 -15l1147 1643l117 -77l-1144 -1641z" />
    <glyph glyph-name="uni0394" unicode="&#x394;" horiz-adv-x="1525" 
d="M855 1536l614 -1536h-179h-1142h-94l617 1536h184zM289 146h945l-471 1203z" />
    <glyph glyph-name="uni03A9" unicode="&#x3a9;" horiz-adv-x="1856" 
d="M141 0v118h353v15q-137 106 -228.5 281t-91.5 387q0 154 57.5 290.5t157 235t241.5 155.5t304 57q165 0 306.5 -61t236.5 -162.5t148.5 -234t53.5 -275.5q0 -214 -95 -396t-227 -277v-15h356v-118h-592v87q78 40 148.5 104t128 150.5t91.5 201t34 240.5q-1 92 -25.5 182
t-74.5 172t-118.5 144.5t-164.5 99.5t-206 37q-107 0 -202 -32.5t-167 -91.5t-125 -138.5t-80 -176t-27 -201.5q0 -120 34 -233.5t91 -200.5t126.5 -153t145.5 -104v-87h-589z" />
    <glyph glyph-name="uni03BC" unicode="&#x3bc;" horiz-adv-x="1287" 
d="M911 1024h157v-1024h-157v159q-56 -84 -142.5 -131.5t-187.5 -47.5q-161 0 -276 110v-602h-123v1536h158v-622q0 -117 82.5 -199.5t199.5 -82.5q119 0 204 82.5t85 199.5v622z" />
    <glyph glyph-name="pi" unicode="&#x3c0;" horiz-adv-x="1451" 
d="M179 0q67 167 119.5 457.5t62.5 535.5q-213 0 -297 -30l-18 92q109 59 341 59h993l-13 -121h-210v-663q0 -231 33 -330h-148q-36 64 -36 310v683l-494 3q-11 -233 -65 -544t-119 -452h-149z" />
    <glyph glyph-name="Wgrave" unicode="&#x1e80;" horiz-adv-x="2071" 
d="M1103 1669h-107l-302 379h184zM1917 1536h169l-478 -1536h-172l-402 1362l-394 -1362h-174l-481 1536h174l391 -1260l369 1260h166h64l374 -1262z" />
    <glyph glyph-name="wgrave" unicode="&#x1e81;" horiz-adv-x="1643" 
d="M888 1157h-107l-302 379h184zM1449 1024h171l-350 -1024h-174l-272 804l-274 -804h-174l-353 1024h179l266 -835l280 835h151l279 -840z" />
    <glyph glyph-name="Wacute" unicode="&#x1e82;" horiz-adv-x="2071" 
d="M1385 2048l-302 -379h-108l226 379h184zM1917 1536h169l-478 -1536h-172l-402 1362l-394 -1362h-174l-481 1536h174l391 -1260l369 1260h166h64l374 -1262z" />
    <glyph glyph-name="wacute" unicode="&#x1e83;" horiz-adv-x="1643" 
d="M1170 1536l-302 -379h-108l226 379h184zM1449 1024h171l-350 -1024h-174l-272 804l-274 -804h-174l-353 1024h179l266 -835l280 835h151l279 -840z" />
    <glyph glyph-name="Wdieresis" unicode="&#x1e84;" horiz-adv-x="2071" 
d="M855 1728q-46 0 -79.5 32t-33.5 76q0 47 33 78.5t80 31.5q45 0 77.5 -31.5t32.5 -78.5q0 -44 -33 -76t-77 -32zM1226 1728q-44 0 -77 32t-33 76q0 47 32.5 78.5t77.5 31.5q46 0 78 -31.5t32 -78.5q0 -44 -32 -76t-78 -32zM1917 1536h169l-478 -1536h-172l-402 1362
l-394 -1362h-174l-481 1536h174l391 -1260l369 1260h166h64l374 -1262z" />
    <glyph glyph-name="wdieresis" unicode="&#x1e85;" horiz-adv-x="1643" 
d="M640 1216q-46 0 -79.5 32t-33.5 76q0 47 33 78.5t80 31.5q45 0 77.5 -31.5t32.5 -78.5q0 -44 -33 -76t-77 -32zM1011 1216q-44 0 -77 32t-33 76q0 47 32.5 78.5t77.5 31.5q46 0 78 -31.5t32 -78.5q0 -44 -32 -76t-78 -32zM1449 1024h171l-350 -1024h-174l-272 804
l-274 -804h-174l-353 1024h179l266 -835l280 835h151l279 -840z" />
    <glyph glyph-name="Ygrave" unicode="&#x1ef2;" horiz-adv-x="1241" 
d="M686 1669h-107l-303 379h185zM1239 1536l-535 -806v-730h-164v727l-537 809h204l415 -637l415 637h202z" />
    <glyph glyph-name="ygrave" unicode="&#x1ef3;" horiz-adv-x="1047" 
d="M589 1157h-108l-302 379h185zM845 1024h179l-440 -1101l-218 -537h-169l246 606l-420 1032h177l327 -840z" />
    <glyph glyph-name="endash" unicode="&#x2013;" horiz-adv-x="1231" 
d="M102 456v153h1024v-153h-1024z" />
    <glyph glyph-name="emdash" unicode="&#x2014;" horiz-adv-x="2048" 
d="M0 456v153h2048v-153h-2048z" />
    <glyph glyph-name="quoteleft" unicode="&#x2018;" horiz-adv-x="424" 
d="M276 1556h116l-167 -616h-181z" />
    <glyph glyph-name="quoteright" unicode="&#x2019;" horiz-adv-x="337" 
d="M200 940h-116l167 616h182z" />
    <glyph glyph-name="quotesinglbase" unicode="&#x201a;" horiz-adv-x="435" 
d="M161 -397h-115l166 617h182z" />
    <glyph glyph-name="quotedblleft" unicode="&#x201c;" horiz-adv-x="798" 
d="M292 1556h115l-166 -616h-182zM653 1556h115l-166 -616h-182z" />
    <glyph glyph-name="quotedblright" unicode="&#x201d;" horiz-adv-x="808" 
d="M522 940h-115l166 616h182zM151 937h-115l166 617h182z" />
    <glyph glyph-name="quotedblbase" unicode="&#x201e;" horiz-adv-x="770" 
d="M159 -397h-115l166 617h182zM504 -397h-115l167 617h181z" />
    <glyph glyph-name="dagger" unicode="&#x2020;" horiz-adv-x="1390" 
d="M1103 965v-110h-358v-1203h-110v1203h-351v110h351v407h110v-407h358z" />
    <glyph glyph-name="daggerdbl" unicode="&#x2021;" horiz-adv-x="1390" 
d="M1103 855h-358v-678h358v-108h-358v-417h-110v417h-351v108h351v678h-351v110h351v407h110v-407h358v-110z" />
    <glyph glyph-name="bullet" unicode="&#x2022;" horiz-adv-x="1185" 
d="M594 325q-143 0 -247 103t-104 248q0 142 104.5 246.5t246.5 104.5q140 0 244 -104.5t104 -246.5q0 -145 -103.5 -248t-244.5 -103z" />
    <glyph glyph-name="ellipsis" unicode="&#x2026;" horiz-adv-x="1551" 
d="M243 -20q-56 0 -98.5 41.5t-42.5 98.5t42.5 99t98.5 42q58 0 99.5 -41.5t41.5 -99.5t-41.5 -99t-99.5 -41zM799 -20q-56 0 -98.5 41.5t-42.5 98.5t42.5 99t98.5 42q58 0 99.5 -41.5t41.5 -99.5t-41.5 -99t-99.5 -41zM1367 -20q-56 0 -98.5 41.5t-42.5 98.5t42.5 99
t98.5 42q58 0 99.5 -41.5t41.5 -99.5t-41.5 -99t-99.5 -41z" />
    <glyph glyph-name="perthousand" unicode="&#x2030;" horiz-adv-x="2176" 
d="M407 922q-115 0 -195.5 91.5t-80.5 222.5q0 133 80.5 226.5t195.5 93.5q113 0 193.5 -93.5t80.5 -226.5q0 -130 -80.5 -222t-193.5 -92zM156 0l1055 1536h166l-1054 -1536h-167zM407 1044q60 0 105.5 56t45.5 136q0 81 -45.5 139.5t-105.5 58.5q-62 0 -106.5 -58
t-44.5 -140q0 -80 44.5 -136t106.5 -56zM1129 -20q-115 0 -196 93.5t-81 226.5q0 131 81 222.5t196 91.5t194.5 -91.5t79.5 -222.5q0 -133 -79.5 -226.5t-194.5 -93.5zM1782 -20q-115 0 -196 93.5t-81 226.5q0 131 81 222.5t196 91.5t194.5 -91.5t79.5 -222.5
q0 -133 -79.5 -226.5t-194.5 -93.5zM1129 102q60 0 104 58t44 140q0 80 -44 136t-104 56q-62 0 -106.5 -56t-44.5 -136q0 -82 44.5 -140t106.5 -58zM1782 102q62 0 105 58t43 140q0 81 -43 136.5t-105 55.5t-106.5 -56t-44.5 -136q0 -82 44.5 -140t106.5 -58z" />
    <glyph glyph-name="guilsinglleft" unicode="&#x2039;" horiz-adv-x="729" 
d="M433 195l-310 376l310 376h138l-312 -376l312 -376h-138z" />
    <glyph glyph-name="guilsinglright" unicode="&#x203a;" horiz-adv-x="729" 
d="M161 195l310 376l-310 376h136l312 -376l-312 -376h-136z" />
    <glyph glyph-name="fraction" unicode="&#x2044;" horiz-adv-x="1118" 
d="M-38 0l1070 1536h128l-1073 -1536h-125z" />
    <glyph glyph-name="Euro" unicode="&#x20ac;" horiz-adv-x="1600" 
d="M950 143q120 0 233.5 47t198.5 130v-207q-97 -62 -210.5 -97.5t-221.5 -35.5q-261 0 -466 149t-282 388h-179l92 146h54q-8 53 -8 105q0 42 5 97h-143l102 144h72q77 242 284 394.5t469 152.5q222 0 420 -125l-52 -161q-163 123 -368 123q-195 0 -350.5 -106t-228.5 -278
l863 -3l-146 -143l-755 2q-8 -53 -8 -97q0 -52 8 -105l791 -5l-136 -143l-612 2q74 -170 228 -272t346 -102z" />
    <glyph glyph-name="uni2113" unicode="&#x2113;" horiz-adv-x="1269" 
d="M694 -10q-97 0 -174 33t-124.5 90t-74 126t-32.5 148v23q-25 -17 -74 -54.5t-72 -53.5l-51 95q28 23 95 74t100 79v602q0 145 32.5 252t88 165.5t119 85.5t136.5 27q150 0 228.5 -104t78.5 -257q0 -198 -134.5 -395.5t-390.5 -421.5v-56q0 -82 24.5 -147t65.5 -103.5
t90.5 -58t104.5 -19.5q111 0 204 70.5t146 165.5l80 -69q-166 -297 -466 -297zM445 660q92 90 158 165t124 159t88 166.5t30 162.5q0 114 -44 181.5t-141 67.5q-38 0 -74 -20t-68.5 -62.5t-52.5 -122t-20 -185.5v-512z" />
    <glyph glyph-name="trademark" unicode="&#x2122;" horiz-adv-x="1666" 
d="M100 1446v90h491v-90h-197v-629h-100v629h-194zM1352 1536h107v-719h-97v565l-269 -404l-269 397v-558h-100v719h108l261 -387z" />
    <glyph glyph-name="estimated" unicode="&#x212e;" horiz-adv-x="1948" 
d="M973 -18q-178 0 -340.5 62t-279.5 166.5t-186.5 249.5t-69.5 305q0 161 69.5 307.5t186.5 252.5t279.5 168.5t340.5 62.5t340 -62.5t279.5 -168.5t186.5 -252.5t69 -307.5v-20h-1418q-10 0 -10 -8v-430q0 -25 18 -48q105 -108 244 -170.5t291 -62.5q168 0 315 69.5
t251 191.5h125q-119 -141 -301 -223t-390 -82zM430 788h1088q8 0 8 16v430q0 33 -21 51q-107 104 -243.5 164.5t-288.5 60.5q-150 0 -288.5 -62t-244.5 -171q-20 -20 -20 -53v-420q0 -16 10 -16z" />
    <glyph glyph-name="partialdiff" unicode="&#x2202;" horiz-adv-x="1113" 
d="M369 1444q130 17 246.5 -35t199.5 -155.5t131 -255t47 -327.5q0 -182 -63.5 -332.5t-174 -237t-243.5 -86.5q-118 0 -206 46t-131 126.5t-47 190t46 236.5q42 116 113.5 199t157.5 123.5t184 41t193 -43.5q-51 209 -174.5 318.5t-278.5 73.5v118zM852 671q0 73 -7 130
q-163 107 -312 46t-228 -268q-35 -92 -36.5 -176.5t26.5 -145t84.5 -96.5t132.5 -36q91 0 168.5 73t124 199t47.5 274z" />
    <glyph glyph-name="emptyset" unicode="&#x2205;" horiz-adv-x="1710" 
d="M1313 1004q154 -178 154 -408q0 -166 -82 -307t-223 -222.5t-307 -81.5q-230 0 -407 153l-87 -87l-51 51l87 87q-154 178 -154 407q0 166 82 307t223 223t307 82q230 0 407 -153l87 87l51 -51zM374 596q0 -180 115 -314l681 681q-134 115 -315 115q-132 0 -243 -64
t-174.5 -175t-63.5 -243zM855 113q132 0 243.5 64t176 175.5t64.5 243.5q0 181 -118 315l-681 -681q133 -117 315 -117z" />
    <glyph glyph-name="product" unicode="&#x220f;" horiz-adv-x="1543" 
d="M1426 1439v-115h-156v-1570h-115v1570h-763v-1570h-118v1570h-154v115h1306z" />
    <glyph glyph-name="summation" unicode="&#x2211;" horiz-adv-x="1571" 
d="M202 -241v87l761 753l-761 750v90h1168v-123h-955l714 -717l-714 -719h955v-123z" />
    <glyph glyph-name="minus" unicode="&#x2212;" horiz-adv-x="1300" 
d="M141 517v156h1021v-156h-1021z" />
    <glyph glyph-name="radical" unicode="&#x221a;" horiz-adv-x="1518" 
d="M532 -159l-238 727h-133v108h213l212 -648l732 1531l100 -43l-804 -1675h-82z" />
    <glyph glyph-name="infinity" unicode="&#x221e;" horiz-adv-x="1589" 
d="M420 302q-117 0 -196 83.5t-83 210.5q4 125 83.5 210t195.5 85q180 0 376 -213q93 102 189.5 157.5t184.5 55.5q119 0 197 -82.5t82 -212.5q-4 -130 -82 -212t-197 -82q-88 0 -184.5 55.5t-189.5 157.5q-196 -213 -376 -213zM420 410q135 0 302 186q-169 185 -302 185
q-69 0 -119.5 -54t-52.5 -131q2 -78 52.5 -132t119.5 -54zM1170 410q69 0 118 53.5t53 132.5q-4 79 -53 132t-118 53q-137 0 -302 -185q163 -186 302 -186z" />
    <glyph glyph-name="integral" unicode="&#x222b;" horiz-adv-x="980" 
d="M233 -387q-83 0 -123 60.5t-10 154.5h110q-10 -54 0.5 -76.5t42.5 -22.5q24 0 43 17t21 44l249 1551q11 77 70 127t132 50q81 0 122 -62t9 -153h-108q8 54 -2 77t-41 23q-24 0 -44 -17t-26 -45l-245 -1551q-11 -77 -69 -127t-131 -50z" />
    <glyph glyph-name="approxequal" unicode="&#x2248;" horiz-adv-x="1254" 
d="M847 653q-39 0 -75.5 11t-61 23.5t-53 38t-41.5 39t-37 41.5q-44 48 -80 71.5t-82 23.5q-80 0 -127.5 -64t-43.5 -161h-115q-6 152 75.5 246t213.5 94q79 0 135 -36t118 -112q41 -50 77.5 -76.5t86.5 -26.5q78 0 127 62.5t45 163.5h115q6 -144 -73.5 -241t-203.5 -97z
M847 248q-39 0 -75.5 11t-60 23t-53 38t-41.5 39t-38 43q-44 48 -80 71.5t-82 23.5q-80 0 -127.5 -65t-43.5 -161h-115q-6 152 75.5 246.5t213.5 94.5q79 0 134.5 -36.5t118.5 -112.5q39 -50 76 -76t88 -26q78 0 127 62.5t45 162.5h115q6 -146 -73 -242t-204 -96z" />
    <glyph glyph-name="notequal" unicode="&#x2260;" horiz-adv-x="1510" 
d="M1370 681h-423l-238 -277h661v-110h-756l-245 -286h-105l245 286h-368v110h463l236 277h-699v110h793l205 241h108l-208 -241h331v-110z" />
    <glyph glyph-name="lessequal" unicode="&#x2264;" horiz-adv-x="1656" 
d="M1393 1403v-136l-996 -471l996 -471v-138l-1129 537v144zM264 0v100h1129v-100h-1129z" />
    <glyph glyph-name="greaterequal" unicode="&#x2265;" horiz-adv-x="1656" 
d="M264 1403l1129 -535v-144l-1129 -537v138l996 471l-996 471v136zM264 0v100h1129v-100h-1129z" />
    <glyph glyph-name="lozenge" unicode="&#x25ca;" horiz-adv-x="1640" 
d="M819 108l-617 614l617 619l617 -617zM822 287l435 437l-435 438l-438 -440z" />
    <glyph glyph-name="uniF8FF" unicode="&#xf8ff;" horiz-adv-x="1960" 
d="M980 0q-158 0 -302 62t-248 166t-166 248t-62 302t62 302.5t166 248.5t248 165.5t302 61.5q127 0 246 -39t214.5 -111t167.5 -168t111.5 -214.5t39.5 -245.5q0 -211 -104.5 -390t-284 -283.5t-390.5 -104.5zM980 74q143 0 273.5 56t225 150.5t150 224.5t55.5 273
t-55.5 273.5t-150 225t-225 150t-273.5 55.5t-273 -55.5t-224.5 -150t-150.5 -225t-56 -273.5t56 -273t150.5 -224.5t224.5 -150.5t273 -56zM1388 445q-15 0 -26 11l-297 297q-10 11 -10 26t10 25l297 297q11 11 26 11t25 -11q11 -10 11 -25.5t-11 -25.5l-269 -272l269 -271
q23 -20 0 -51q-7 -11 -25 -11zM573 445q-15 0 -26.5 10.5t-11.5 25.5v594q0 15 11.5 25.5t26.5 10.5t25.5 -10.5t10.5 -25.5v-594q0 -15 -10.5 -25.5t-25.5 -10.5zM980 445q-15 0 -26.5 10.5t-11.5 25.5v594q0 15 11.5 25.5t26.5 10.5t25.5 -10.5t10.5 -25.5v-594
q0 -15 -10.5 -25.5t-25.5 -10.5zM684 742q-15 0 -27 10.5t-12 25.5t12 25.5t27 10.5h186q15 0 25.5 -10.5t10.5 -25.5t-10.5 -25.5t-25.5 -10.5h-186z" />
    <glyph glyph-name="i.loclTRK" horiz-adv-x="560" 
d="M282 1178q-45 0 -77.5 32.5t-32.5 77.5t32.5 77.5t77.5 32.5t77.5 -32.5t32.5 -77.5t-32.5 -77.5t-77.5 -32.5zM202 0v1024h159v-1024h-159z" />
    </font>
</defs>
</svg>
